<svg xmlns="http://www.w3.org/2000/svg" xmlns:xlink="http://www.w3.org/1999/xlink" viewBox="0 0 50.55 49.95"><defs><style>.cls-1{mask:url(#mask);filter:url(#luminosity-noclip-10);}.cls-10,.cls-12,.cls-14,.cls-16,.cls-18,.cls-2,.cls-20,.cls-26,.cls-28,.cls-29,.cls-31,.cls-33,.cls-34,.cls-35,.cls-36,.cls-37,.cls-39,.cls-4,.cls-40,.cls-41,.cls-43,.cls-44,.cls-45,.cls-47,.cls-51,.cls-56,.cls-6,.cls-60,.cls-63,.cls-68,.cls-70,.cls-72,.cls-74,.cls-8{mix-blend-mode:multiply;}.cls-2{fill:url(#radial-gradient);}.cls-3{mask:url(#mask-2);filter:url(#luminosity-noclip-15);}.cls-4{fill:url(#radial-gradient-2);}.cls-5{mask:url(#mask-3);filter:url(#luminosity-noclip-16);}.cls-6{fill:url(#radial-gradient-3);}.cls-7{mask:url(#mask-4);filter:url(#luminosity-noclip-17);}.cls-8{fill:url(#radial-gradient-4);}.cls-9{mask:url(#mask-5);filter:url(#luminosity-noclip-18);}.cls-10{fill:url(#linear-gradient);}.cls-11{mask:url(#mask-6);filter:url(#luminosity-noclip-11);}.cls-12{fill:url(#radial-gradient-5);}.cls-13{mask:url(#mask-7);filter:url(#luminosity-noclip-12);}.cls-14{fill:url(#radial-gradient-6);}.cls-15{mask:url(#mask-8);filter:url(#luminosity-noclip-13);}.cls-16{fill:url(#radial-gradient-7);}.cls-17{mask:url(#mask-9);filter:url(#luminosity-noclip-14);}.cls-18{fill:url(#radial-gradient-8);}.cls-19{isolation:isolate;}.cls-20,.cls-26{fill:#cca182;}.cls-20,.cls-83{opacity:0.8;}.cls-21{fill:#a25827;}.cls-22{fill:#f2b471;}.cls-23,.cls-77,.cls-78,.cls-81,.cls-82{fill:#fff1d0;}.cls-24{fill:#ffdfc8;}.cls-25{fill:#4e2d8b;}.cls-26,.cls-28,.cls-31,.cls-33,.cls-40,.cls-47,.cls-65,.cls-77,.cls-80,.cls-81{opacity:0.7;}.cls-27{mask:url(#mask-10);}.cls-28{fill:url(#radial-gradient-9);}.cls-29,.cls-64,.cls-65{fill:#7b6a5c;}.cls-29,.cls-39,.cls-64,.cls-66{opacity:0.3;}.cls-30{mask:url(#mask-11);}.cls-31{fill:url(#radial-gradient-10);}.cls-32,.cls-66,.cls-83,.cls-84{fill:#bc9b7c;}.cls-32{opacity:0.2;}.cls-32,.cls-53,.cls-55,.cls-64,.cls-65,.cls-66,.cls-76,.cls-81,.cls-82,.cls-83{mix-blend-mode:screen;}.cls-33{fill:url(#radial-gradient-11);}.cls-34,.cls-35,.cls-36,.cls-37,.cls-41,.cls-43,.cls-44,.cls-45,.cls-76,.cls-79,.cls-82{opacity:0.4;}.cls-34{fill:url(#radial-gradient-12);}.cls-35{fill:url(#radial-gradient-13);}.cls-36{fill:url(#radial-gradient-14);}.cls-37{fill:url(#radial-gradient-15);}.cls-38{mask:url(#mask-12);}.cls-39{fill:url(#radial-gradient-16);}.cls-40,.cls-56{fill:#98918f;}.cls-41{fill:url(#radial-gradient-17);}.cls-42{fill:#640918;}.cls-43{fill:url(#radial-gradient-18);}.cls-44{fill:url(#radial-gradient-19);}.cls-45{fill:url(#radial-gradient-20);}.cls-46{mask:url(#mask-13);}.cls-47{fill:url(#radial-gradient-21);}.cls-48{fill:#c8c7c7;}.cls-49{fill:url(#linear-gradient-2);}.cls-50{fill:#282117;}.cls-51{opacity:0.6;}.cls-52{fill:url(#linear-gradient-3);}.cls-53,.cls-62,.cls-68,.cls-70,.cls-72,.cls-74,.cls-78{opacity:0.5;}.cls-54{fill:#ceaa52;}.cls-55,.cls-57{fill:#fff;}.cls-55{opacity:0.9;}.cls-58{fill:url(#linear-gradient-4);}.cls-59{fill:url(#linear-gradient-5);}.cls-61,.cls-62{fill:#ab7c5a;}.cls-63{fill:#74482a;}.cls-67{mask:url(#mask-14);}.cls-68{fill:url(#radial-gradient-22);}.cls-69{mask:url(#mask-15);}.cls-70{fill:url(#radial-gradient-23);}.cls-71{mask:url(#mask-16);}.cls-72{fill:url(#radial-gradient-24);}.cls-73{mask:url(#mask-17);}.cls-74{fill:url(#radial-gradient-25);}.cls-75{mask:url(#mask-18);}.cls-76{fill:url(#linear-gradient-6);}.cls-79,.cls-80{fill:#e3b991;}.cls-85{filter:url(#luminosity-noclip-9);}.cls-86{filter:url(#luminosity-noclip-8);}.cls-87{filter:url(#luminosity-noclip-7);}.cls-88{filter:url(#luminosity-noclip-6);}.cls-89{filter:url(#luminosity-noclip-5);}.cls-90{filter:url(#luminosity-noclip-4);}.cls-91{filter:url(#luminosity-noclip-3);}.cls-92{filter:url(#luminosity-noclip-2);}.cls-93{filter:url(#luminosity-noclip);}</style><filter id="luminosity-noclip" x="1.31" y="-8217.57" width="18.29" height="32766" filterUnits="userSpaceOnUse" color-interpolation-filters="sRGB"><feFlood flood-color="#fff" result="bg"/><feBlend in="SourceGraphic" in2="bg"/></filter><mask id="mask" x="1.31" y="-8217.57" width="18.29" height="32766" maskUnits="userSpaceOnUse"><g class="cls-93"/></mask><radialGradient id="radial-gradient" cx="12.57" cy="14.39" r="9.53" gradientTransform="translate(-3.22 0.16) rotate(-0.1)" gradientUnits="userSpaceOnUse"><stop offset="0.62" stop-color="#fff"/><stop offset="0.76" stop-color="#fff"/><stop offset="0.89" stop-color="#fff"/><stop offset="0.98"/></radialGradient><filter id="luminosity-noclip-2" x="11.17" y="-8217.57" width="1.82" height="32766" filterUnits="userSpaceOnUse" color-interpolation-filters="sRGB"><feFlood flood-color="#fff" result="bg"/><feBlend in="SourceGraphic" in2="bg"/></filter><mask id="mask-2" x="11.17" y="-8217.57" width="1.82" height="32766" maskUnits="userSpaceOnUse"><g class="cls-92"/></mask><radialGradient id="radial-gradient-2" cx="-106.94" cy="-4.91" r="1.43" gradientTransform="translate(117.95 18.13) rotate(4.56)" gradientUnits="userSpaceOnUse"><stop offset="0.2" stop-color="#fff"/><stop offset="0.37" stop-color="#fff"/><stop offset="0.61" stop-color="#fff"/><stop offset="0.98"/></radialGradient><filter id="luminosity-noclip-3" x="7.5" y="-8217.57" width="2.11" height="32766" filterUnits="userSpaceOnUse" color-interpolation-filters="sRGB"><feFlood flood-color="#fff" result="bg"/><feBlend in="SourceGraphic" in2="bg"/></filter><mask id="mask-3" x="7.5" y="-8217.57" width="2.11" height="32766" maskUnits="userSpaceOnUse"><g class="cls-91"/></mask><radialGradient id="radial-gradient-3" cx="172.68" cy="40.46" r="1.76" gradientTransform="matrix(0.99, -0.11, 0.11, 0.99, -167.47, -16.89)" gradientUnits="userSpaceOnUse"><stop offset="0.38" stop-color="#fff"/><stop offset="0.55" stop-color="#fff"/><stop offset="0.72" stop-color="#fff"/><stop offset="0.98"/></radialGradient><filter id="luminosity-noclip-4" x="7.91" y="-8217.57" width="1.46" height="32766" filterUnits="userSpaceOnUse" color-interpolation-filters="sRGB"><feFlood flood-color="#fff" result="bg"/><feBlend in="SourceGraphic" in2="bg"/></filter><mask id="mask-4" x="7.91" y="-8217.57" width="1.46" height="32766" maskUnits="userSpaceOnUse"><g class="cls-90"/></mask><radialGradient id="radial-gradient-4" cx="83.78" cy="19.7" r="1.76" gradientTransform="translate(-75.96 -11.23) rotate(-2.84)" xlink:href="#radial-gradient-3"/><filter id="luminosity-noclip-5" x="15.71" y="-8217.57" width="6.24" height="32766" filterUnits="userSpaceOnUse" color-interpolation-filters="sRGB"><feFlood flood-color="#fff" result="bg"/><feBlend in="SourceGraphic" in2="bg"/></filter><mask id="mask-5" x="15.71" y="-8217.57" width="6.24" height="32766" maskUnits="userSpaceOnUse"><g class="cls-89"/></mask><linearGradient id="linear-gradient" x1="20.49" y1="7.28" x2="24.52" y2="6.25" gradientTransform="translate(-3.22 0.16) rotate(-0.1)" gradientUnits="userSpaceOnUse"><stop offset="0.02"/><stop offset="0.34" stop-color="#fff"/><stop offset="0.68" stop-color="#fff"/><stop offset="1" stop-color="#fff"/></linearGradient><filter id="luminosity-noclip-6" x="0" y="-8217.57" width="7.74" height="32766" filterUnits="userSpaceOnUse" color-interpolation-filters="sRGB"><feFlood flood-color="#fff" result="bg"/><feBlend in="SourceGraphic" in2="bg"/></filter><mask id="mask-6" x="0" y="-8217.57" width="7.74" height="32766" maskUnits="userSpaceOnUse"><g class="cls-88"/></mask><radialGradient id="radial-gradient-5" cx="8.48" cy="11.67" r="11.58" xlink:href="#radial-gradient"/><filter id="luminosity-noclip-7" x="1.31" y="-8217.57" width="16.14" height="32766" filterUnits="userSpaceOnUse" color-interpolation-filters="sRGB"><feFlood flood-color="#fff" result="bg"/><feBlend in="SourceGraphic" in2="bg"/></filter><mask id="mask-7" x="1.31" y="-8217.57" width="16.14" height="32766" maskUnits="userSpaceOnUse"><g class="cls-87"/></mask><radialGradient id="radial-gradient-6" cx="12.7" cy="15.04" r="9.14" gradientTransform="translate(-3.22 0.16) rotate(-0.1)" gradientUnits="userSpaceOnUse"><stop offset="0.34" stop-color="#fff"/><stop offset="0.68" stop-color="gray"/><stop offset="1" stop-color="#333"/></radialGradient><filter id="luminosity-noclip-8" x="15.37" y="-8217.57" width="6.78" height="32766" filterUnits="userSpaceOnUse" color-interpolation-filters="sRGB"><feFlood flood-color="#fff" result="bg"/><feBlend in="SourceGraphic" in2="bg"/></filter><mask id="mask-8" x="15.37" y="-8217.57" width="6.78" height="32766" maskUnits="userSpaceOnUse"><g class="cls-86"/></mask><radialGradient id="radial-gradient-7" cx="17.22" cy="11.61" r="10.7" xlink:href="#radial-gradient"/><filter id="luminosity-noclip-9" x="11.01" y="-8217.57" width="2.54" height="32766" filterUnits="userSpaceOnUse" color-interpolation-filters="sRGB"><feFlood flood-color="#fff" result="bg"/><feBlend in="SourceGraphic" in2="bg"/></filter><mask id="mask-9" x="11.01" y="-8217.57" width="2.54" height="32766" maskUnits="userSpaceOnUse"><g class="cls-85"/></mask><radialGradient id="radial-gradient-8" cx="22.9" cy="6.46" r="1.7" gradientTransform="translate(-10.66 -1.35) rotate(-0.44)" xlink:href="#radial-gradient-3"/><filter id="luminosity-noclip-10" x="1.31" y="3.66" width="18.29" height="16.96" filterUnits="userSpaceOnUse" color-interpolation-filters="sRGB"><feFlood flood-color="#fff" result="bg"/><feBlend in="SourceGraphic" in2="bg"/></filter><mask id="mask-10" x="1.31" y="3.66" width="18.29" height="16.96" maskUnits="userSpaceOnUse"><g class="cls-1"><path class="cls-2" d="M19.61,12a13.63,13.63,0,0,0-1.15-3.06A9.11,9.11,0,0,0,13.32,4.4a13,13,0,0,0-4.49-.73,8.54,8.54,0,0,0-4.2.87c-2.2,1.29-2.82,4-3,6.42l.2-.22a5.49,5.49,0,0,0,.49-.67,6.91,6.91,0,0,0-.11.9,3,3,0,0,0,.11,1.15s0,0,0,0a5.21,5.21,0,0,0-.59,1.12A5,5,0,0,0,1.38,16a4.49,4.49,0,0,0,1.2,2.17A3.13,3.13,0,0,0,3.9,19a2.88,2.88,0,0,0,1.62,0h0c.17.09.32.2.49.3v0l.15.06a1.54,1.54,0,0,0,.9,0,3.19,3.19,0,0,1,1.36-.25,5.11,5.11,0,0,1,1.35.45,1.79,1.79,0,0,0,1.49.21s0,0,.08,0a3.16,3.16,0,0,1,.58.44,2.09,2.09,0,0,0,1,.41,2.82,2.82,0,0,0,2-.33,3.88,3.88,0,0,0,1.39-1.37c.16-.28.3-.57.45-.85l.14-.25a.06.06,0,0,1,0-.06,10.94,10.94,0,0,0,.66-1.79c.17-.59.42-1.16.56-1.77.07-.32.09-.64.13-1a.57.57,0,0,1,.25-.34c.17-.15.39-.24.57-.38s.23-.26.36-.33Z"/></g></mask><radialGradient id="radial-gradient-9" cx="12.57" cy="14.39" r="9.53" gradientTransform="translate(-3.22 0.16) rotate(-0.1)" gradientUnits="userSpaceOnUse"><stop offset="0.62" stop-color="#3f3932"/><stop offset="0.76" stop-color="#7b6a5c"/><stop offset="0.89" stop-color="#bc9b7c"/><stop offset="0.98" stop-color="#bc9b7c"/></radialGradient><filter id="luminosity-noclip-11" x="0" y="0" width="7.74" height="11.76" filterUnits="userSpaceOnUse" color-interpolation-filters="sRGB"><feFlood flood-color="#fff" result="bg"/><feBlend in="SourceGraphic" in2="bg"/></filter><mask id="mask-11" x="0" y="0" width="7.74" height="11.76" maskUnits="userSpaceOnUse"><g class="cls-11"><path class="cls-12" d="M7.39,1.56a3.83,3.83,0,0,0-.67.6,0,0,0,1,1,0,0,5,5,0,0,1,.68-.78l.14-.16c0-.07,0-.15,0-.21A1.29,1.29,0,0,0,7.13.61a0,0,0,0,1,0,0,.64.64,0,0,1,.59.29l0-.13A1.23,1.23,0,0,0,7.29.18C6.71-.21,5.9.12,5.37.41a6.91,6.91,0,0,0-1.5,1.14,1.25,1.25,0,0,1-.66-.06,3.22,3.22,0,0,0-.86-.18A2,2,0,0,0,.76,2.2a3.4,3.4,0,0,0-.43,1A10,10,0,0,0,.07,4.61a11.89,11.89,0,0,0,0,2.92q.06.48.15,1c.06.34.15.68.19,1a3.76,3.76,0,0,1-.14,1.29c-.07.28-.32.74,0,.92.14.08.3,0,.42-.08a4.32,4.32,0,0,0,1-.91,7,7,0,0,0,.47-.64,7.76,7.76,0,0,0,.55-1.26C3,8.11,3,7.34,3.15,6.6a3.55,3.55,0,0,1,.91-1.81A13.69,13.69,0,0,0,5.52,3.2l0,0a.06.06,0,0,1,.06-.06c.36,0,1-.71,1.53-1.12A3.91,3.91,0,0,0,7.39,1.56Z"/></g></mask><radialGradient id="radial-gradient-10" cx="8.48" cy="11.67" r="11.58" xlink:href="#radial-gradient-9"/><radialGradient id="radial-gradient-11" cx="13.24" cy="7.18" r="6.42" gradientTransform="translate(-3.22 0.16) rotate(-0.1)" gradientUnits="userSpaceOnUse"><stop offset="0.34" stop-color="#3f3932"/><stop offset="0.68" stop-color="#7b6a5c"/><stop offset="1" stop-color="#bc9b7c"/></radialGradient><radialGradient id="radial-gradient-12" cx="13.24" cy="7.18" r="6.42" xlink:href="#radial-gradient-11"/><radialGradient id="radial-gradient-13" cx="13.24" cy="7.18" r="6.42" xlink:href="#radial-gradient-11"/><radialGradient id="radial-gradient-14" cx="13.24" cy="7.18" r="6.42" xlink:href="#radial-gradient-11"/><radialGradient id="radial-gradient-15" cx="13.24" cy="7.18" r="6.42" xlink:href="#radial-gradient-11"/><filter id="luminosity-noclip-12" x="1.31" y="8.57" width="16.14" height="12.05" filterUnits="userSpaceOnUse" color-interpolation-filters="sRGB"><feFlood flood-color="#fff" result="bg"/><feBlend in="SourceGraphic" in2="bg"/></filter><mask id="mask-12" x="1.31" y="8.57" width="16.14" height="12.05" maskUnits="userSpaceOnUse"><g class="cls-13"><path class="cls-14" d="M17.45,16.38l0,0c-.33.32-.53,1.37-.56-.36A5.69,5.69,0,0,0,16,13.32c0-.06-.06-.1-.09-.15a8,8,0,0,0-3.42-2.59C11,8.17,7.9,8.14,5.62,9.39a6.61,6.61,0,0,1-1.08.73,8.18,8.18,0,0,0-2.16,1.76s-.16-.18-.2-.2a2.16,2.16,0,0,0,.1.44s0,0,0,0a5.21,5.21,0,0,0-.59,1.12A5,5,0,0,0,1.38,16a4.49,4.49,0,0,0,1.2,2.17A3.13,3.13,0,0,0,3.9,19a2.88,2.88,0,0,0,1.62,0h0c.17.09.32.2.49.3v0a.93.93,0,0,0,.47.11,4.41,4.41,0,0,0,.82-.16,2.79,2.79,0,0,1,1.25-.05c.51.11,1,.37,1.47.51a1.8,1.8,0,0,0,1.31,0c.05,0,.09,0,.09,0a3.36,3.36,0,0,0,2.05.85,3.1,3.1,0,0,0,1.92-.74,6.42,6.42,0,0,0,1.3-1.79,7.48,7.48,0,0,0,.75-1.72Z"/></g></mask><radialGradient id="radial-gradient-16" cx="12.7" cy="15.04" r="9.14" gradientTransform="translate(-3.22 0.16) rotate(-0.1)" gradientUnits="userSpaceOnUse"><stop offset="0.34" stop-color="#3f3932"/><stop offset="0.68" stop-color="#7b6a5c"/><stop offset="1" stop-color="#bc9b7c"/></radialGradient><radialGradient id="radial-gradient-17" cx="12.7" cy="12.17" r="10.91" xlink:href="#radial-gradient-11"/><radialGradient id="radial-gradient-18" cx="12.72" cy="12.17" r="10.94" xlink:href="#radial-gradient-11"/><radialGradient id="radial-gradient-19" cx="12.7" cy="12.17" r="10.91" xlink:href="#radial-gradient-11"/><radialGradient id="radial-gradient-20" cx="12.7" cy="12.17" r="10.91" xlink:href="#radial-gradient-11"/><filter id="luminosity-noclip-13" x="15.37" y="1.09" width="6.78" height="13.42" filterUnits="userSpaceOnUse" color-interpolation-filters="sRGB"><feFlood flood-color="#fff" result="bg"/><feBlend in="SourceGraphic" in2="bg"/></filter><mask id="mask-13" x="15.37" y="1.09" width="6.78" height="13.42" maskUnits="userSpaceOnUse"><g class="cls-15"><path class="cls-16" d="M22.12,6.46a9.6,9.6,0,0,0-.28-1.77,2.22,2.22,0,0,0-1-1.33A2.91,2.91,0,0,0,20,3.11a3.47,3.47,0,0,1-1-.34,1.76,1.76,0,0,1-.34-.25c-.15-.26-.28-.53-.45-.78a1.23,1.23,0,0,0-1.33-.62A2.61,2.61,0,0,0,15.44,2l0,0,0,.07a4,4,0,0,1,1,.78,5.14,5.14,0,0,1,.8,1.11,2.78,2.78,0,0,1,.16.76c.05.26.1.53.13.79.08.57.08,1.14.11,1.71a.05.05,0,0,1,0,0A8.82,8.82,0,0,1,17.26,9c-.13.65-.33,1.3-.44,2a8.55,8.55,0,0,0-.13,2c0,.32.13,1.59.71,1.49a.06.06,0,0,1,.07,0c.25,0,.35-.5.42-.68a3.22,3.22,0,0,1,.29-.55s0,0,0,0l.1-.14a4.25,4.25,0,0,1,1.08-.91h0a4.13,4.13,0,0,0,1.22-1.55c.18-.41.34-.84.51-1.26a18,18,0,0,0,.95-1.85A2.9,2.9,0,0,0,22.12,6.46Z"/></g></mask><radialGradient id="radial-gradient-21" cx="17.22" cy="11.61" r="10.7" xlink:href="#radial-gradient-9"/><linearGradient id="linear-gradient-2" x1="-1088.84" y1="-1260.94" x2="-1088.02" y2="-1257.68" gradientTransform="translate(855.71 1443.38) rotate(10.42)" gradientUnits="userSpaceOnUse"><stop offset="0" stop-color="#111021"/><stop offset="0.54" stop-color="#824126"/><stop offset="0.78" stop-color="#ffc281"/><stop offset="0.99" stop-color="#b26500"/></linearGradient><linearGradient id="linear-gradient-3" x1="15.55" y1="5.99" x2="16.76" y2="10.04" gradientTransform="translate(-3.22 0.16) rotate(-0.1)" gradientUnits="userSpaceOnUse"><stop offset="0.21" stop-color="#824126"/><stop offset="0.99" stop-color="#b26500"/></linearGradient><linearGradient id="linear-gradient-4" x1="-585.27" y1="-40.59" x2="-584.53" y2="-37.71" gradientTransform="translate(421.08 421.45) rotate(41.15)" xlink:href="#linear-gradient-2"/><linearGradient id="linear-gradient-5" x1="9.04" y1="5.24" x2="10.05" y2="8.61" xlink:href="#linear-gradient-3"/><filter id="luminosity-noclip-14" x="11.01" y="2.91" width="2.54" height="4.08" filterUnits="userSpaceOnUse" color-interpolation-filters="sRGB"><feFlood flood-color="#fff" result="bg"/><feBlend in="SourceGraphic" in2="bg"/></filter><mask id="mask-14" x="11.01" y="2.91" width="2.54" height="4.08" maskUnits="userSpaceOnUse"><g class="cls-17"><path class="cls-18" d="M13.05,2.92c-1.27-.21-1.83,1.58-1.9,2.53,0,.49-.14,1-.14,1.47a.08.08,0,0,0,.15,0,4,4,0,0,1,.89-1.57A12.39,12.39,0,0,0,13.42,4a.69.69,0,0,0-.34-1.09Z"/></g></mask><radialGradient id="radial-gradient-22" cx="22.9" cy="6.46" r="1.7" gradientTransform="translate(-10.66 -1.35) rotate(-0.44)" gradientUnits="userSpaceOnUse"><stop offset="0.38" stop-color="#3f3932"/><stop offset="0.55" stop-color="#7b6a5c"/><stop offset="0.72" stop-color="#bc9b7c"/><stop offset="0.98" stop-color="#bc9b7c"/></radialGradient><filter id="luminosity-noclip-15" x="11.17" y="3.69" width="1.82" height="2.59" filterUnits="userSpaceOnUse" color-interpolation-filters="sRGB"><feFlood flood-color="#fff" result="bg"/><feBlend in="SourceGraphic" in2="bg"/></filter><mask id="mask-15" x="11.17" y="3.69" width="1.82" height="2.59" maskUnits="userSpaceOnUse"><g class="cls-3"><path class="cls-4" d="M12.94,3.88c-.12-.2-.37,0-.52,0s-.15-.08-.19-.15-.39.1-.45.19a3.62,3.62,0,0,0-.48,1.17,4.07,4.07,0,0,0-.11.78c0,.12,0,.25,0,.38a4.07,4.07,0,0,1,.76-1.2c.32-.35.72-.63,1.06-1A.33.33,0,0,0,12.94,3.88Z"/></g></mask><radialGradient id="radial-gradient-23" cx="-106.94" cy="-4.91" r="1.43" gradientTransform="translate(117.95 18.13) rotate(4.56)" gradientUnits="userSpaceOnUse"><stop offset="0.2" stop-color="#3f3932"/><stop offset="0.37" stop-color="#7b6a5c"/><stop offset="0.61" stop-color="#bc9b7c"/><stop offset="0.98" stop-color="#bc9b7c"/></radialGradient><filter id="luminosity-noclip-16" x="7.5" y="1.94" width="2.11" height="4.52" filterUnits="userSpaceOnUse" color-interpolation-filters="sRGB"><feFlood flood-color="#fff" result="bg"/><feBlend in="SourceGraphic" in2="bg"/></filter><mask id="mask-16" x="7.5" y="1.94" width="2.11" height="4.52" maskUnits="userSpaceOnUse"><g class="cls-5"><path class="cls-6" d="M9.35,2.91c-.2-.48-.52-.92-1-1a.92.92,0,0,0-.82.56c-.12.6.35,1.1.65,1.57a5.46,5.46,0,0,1,.6,1.21,3,3,0,0,1,.17.6c0,.18,0,.41.08.57,0,0,.05,0,.07-.07A4.36,4.36,0,0,0,9.35,2.91Z"/></g></mask><radialGradient id="radial-gradient-24" cx="172.68" cy="40.46" r="1.76" gradientTransform="matrix(0.99, -0.11, 0.11, 0.99, -167.47, -16.89)" xlink:href="#radial-gradient-22"/><filter id="luminosity-noclip-17" x="7.91" y="2.81" width="1.46" height="3.08" filterUnits="userSpaceOnUse" color-interpolation-filters="sRGB"><feFlood flood-color="#fff" result="bg"/><feBlend in="SourceGraphic" in2="bg"/></filter><mask id="mask-17" x="7.91" y="2.81" width="1.46" height="3.08" maskUnits="userSpaceOnUse"><g class="cls-7"><path class="cls-8" d="M8.92,3.09s0,.06-.07.07S8.63,3.07,8.57,3s-.23-.26-.31-.15A.31.31,0,0,1,8.17,3a.12.12,0,0,1-.11,0s-.19-.05-.14.07a.32.32,0,0,0,.13.15s0,.06,0,0a2.79,2.79,0,0,1,.66,1.08,6,6,0,0,1,.45,1.55,3.87,3.87,0,0,0,0-2.6C9.14,3.23,9,3,8.92,3.09Z"/></g></mask><radialGradient id="radial-gradient-25" cx="83.78" cy="19.7" r="1.76" gradientTransform="translate(-75.96 -11.23) rotate(-2.84)" xlink:href="#radial-gradient-22"/><filter id="luminosity-noclip-18" x="15.71" y="1.2" width="6.24" height="12.4" filterUnits="userSpaceOnUse" color-interpolation-filters="sRGB"><feFlood flood-color="#fff" result="bg"/><feBlend in="SourceGraphic" in2="bg"/></filter><mask id="mask-18" x="15.71" y="1.2" width="6.24" height="12.4" maskUnits="userSpaceOnUse"><g class="cls-9"><path class="cls-10" d="M21.76,5.35c-.06-.25-.14-.5-.21-.73A2.24,2.24,0,0,0,20.5,3.39a1.66,1.66,0,0,1,.31.36,1.68,1.68,0,0,1,.37,1.32c-.1.41-.49.86-.93.57a2.7,2.7,0,0,1-.66-.77c-.21-.33-.39-.69-.57-1a14.51,14.51,0,0,0-.87-1.77,1.75,1.75,0,0,0-1-.85c-.52-.09-1,.41-1.38.68,0,0,0,.08,0,.06a7.31,7.31,0,0,1,.93-.46.9.9,0,0,1,.83.33A3.57,3.57,0,0,1,18.25,3l.27.63a8.88,8.88,0,0,0,.4,1.4,4.21,4.21,0,0,0,.88,1.3,3.29,3.29,0,0,1,.78,1.17,1.79,1.79,0,0,1,0,.89,5.58,5.58,0,0,1-.35.79,2.19,2.19,0,0,0-.2.44,9.29,9.29,0,0,1-.45,1.35c-.48.87-1.36,1.06-1.76,2,0,.08-.21,1.18,0,.41.13-.54.77-.79,1.2-1.15A6.1,6.1,0,0,0,20.15,11a8.4,8.4,0,0,0,.61-1.7,8,8,0,0,1,.87-1.42A3.35,3.35,0,0,0,21.76,5.35Z"/></g></mask><linearGradient id="linear-gradient-6" x1="20.49" y1="7.28" x2="24.52" y2="6.25" gradientTransform="translate(-3.22 0.16) rotate(-0.1)" gradientUnits="userSpaceOnUse"><stop offset="0.02" stop-color="#3f3932"/><stop offset="0.34" stop-color="#3f3932"/><stop offset="0.68" stop-color="#7b6a5c"/><stop offset="1" stop-color="#bc9b7c"/></linearGradient></defs><title>Zasób 1</title><g class="cls-19"><g id="Warstwa_2" data-name="Warstwa 2"><g id="Layer_1" data-name="Layer 1"><path class="cls-20" d="M49,43.05a1.67,1.67,0,0,1-.8.68c-.3.12-.85.2-1-.18a.48.48,0,0,1,0-.37l0,0a.49.49,0,0,0-.1.15,1.8,1.8,0,0,0-.29.57c-.11.32-.28.83.09,1a.69.69,0,0,0,.41.13,1.19,1.19,0,0,0,.46-.06l.06,0a1.39,1.39,0,0,0,.73-.46,1.1,1.1,0,0,0,.18-.14,1.11,1.11,0,0,0,.36-.77,1.17,1.17,0,0,0,0-.42A1.36,1.36,0,0,0,49,43.05Z"/><path class="cls-21" d="M50.26,26.33h0a3.17,3.17,0,0,1-2-.6,9.73,9.73,0,0,1-1.49-1.45,13.31,13.31,0,0,1-1.27-2c-.4-.67-.77-1.36-1.16-2s-.66-1.25-1.05-1.83A16.88,16.88,0,0,0,42,16.84c-.22-.24-.45-.47-.68-.71a5.18,5.18,0,0,0-.83-.79,3.21,3.21,0,0,0-.88-.41l-.09,0a.28.28,0,0,0-.14.09,3.79,3.79,0,0,1,.64.82c.22.35.44.69.65,1,.42.72.87,1.41,1.24,2.15s.83,1.6,1.19,2.43c.13.29.23.58.33.87a8.8,8.8,0,0,0,.64,1.78,12.1,12.1,0,0,0,.76,1.24l.31.45c.23.19.46.37.7.54a.09.09,0,0,0,0-.08,1.48,1.48,0,0,0-.17-.42,2.15,2.15,0,0,0,.94.9c.05,0,.11-.06.1-.11s0,0,0,0a3.55,3.55,0,0,0,2.44.72,2,2,0,0,0,1.29-.6C50.65,26.46,50.49,26.28,50.26,26.33Z"/><path class="cls-22" d="M50.36,26.71a1.48,1.48,0,0,1-.21.13l-.1.05a2.44,2.44,0,0,1-.7.25,3.13,3.13,0,0,1-1.18-.05,3.29,3.29,0,0,1-1.08-.46c-.14-.08-.27-.19-.4-.28A5,5,0,0,0,46.2,26c.1.14.24.32.34.49a3.69,3.69,0,0,1-.92-1.09c0-.05-.11,0-.12.07a1.38,1.38,0,0,0,.17.58,5.14,5.14,0,0,1-.67-.84l-.11-.16a5.42,5.42,0,0,1-1.06-2q-.12-.39-.21-.81c-.11-.31-.22-.63-.35-.94-.36-.87-.82-1.69-1.24-2.54s-.83-1.42-1.26-2.13c-.21-.34-.44-.68-.68-1a5.45,5.45,0,0,0-.45-.59,4.27,4.27,0,0,1,.87.46,6.29,6.29,0,0,1,.73.73c.25.26.5.52.74.8a15.41,15.41,0,0,1,1.41,1.81c.41.63.72,1.32,1.1,2a26.54,26.54,0,0,0,2.36,3.75,4,4,0,0,0,3.26,1.81,0,0,0,0,0,0,0,.31.31,0,0,1,.25,0A.17.17,0,0,1,50.36,26.71Z"/><path class="cls-20" d="M50.36,26.71a1.48,1.48,0,0,1-.21.13l-.1.05a2.44,2.44,0,0,1-.7.25,3.13,3.13,0,0,1-1.18-.05,3.29,3.29,0,0,1-1.08-.46c-.14-.08-.27-.19-.4-.28A5,5,0,0,0,46.2,26c.1.14.24.32.34.49a3.69,3.69,0,0,1-.92-1.09c0-.05-.11,0-.12.07a1.38,1.38,0,0,0,.17.58,5.14,5.14,0,0,1-.67-.84l-.11-.16a5.42,5.42,0,0,1-1.06-2q-.12-.39-.21-.81c-.11-.31-.22-.63-.35-.94-.36-.87-.82-1.69-1.24-2.54s-.83-1.42-1.26-2.13c-.21-.34-.44-.68-.68-1a5.45,5.45,0,0,0-.45-.59,4.27,4.27,0,0,1,.87.46,6.29,6.29,0,0,1,.73.73c.25.26.5.52.74.8a15.41,15.41,0,0,1,1.41,1.81c.41.63.72,1.32,1.1,2a26.54,26.54,0,0,0,2.36,3.75,4,4,0,0,0,3.26,1.81,0,0,0,0,0,0,0,.31.31,0,0,1,.25,0A.17.17,0,0,1,50.36,26.71Z"/><path class="cls-20" d="M47.4,26.64a5.49,5.49,0,0,1-1.92-2.55,25.08,25.08,0,0,0-1.33-3.47c0-.06.05-.12.1-.07a.69.69,0,0,1,.13.11c-.33-.59-.62-1.21-1-1.78A15.41,15.41,0,0,0,42,17.07c-.24-.28-.49-.54-.74-.8a6.29,6.29,0,0,0-.73-.73,4.27,4.27,0,0,0-.87-.46,5.45,5.45,0,0,1,.45.59c.24.34.47.68.68,1,.43.71.89,1.4,1.26,2.13s.88,1.67,1.24,2.54c.13.31.24.63.35.94s.13.55.21.81a5.42,5.42,0,0,0,1.06,2l.11.16a5.14,5.14,0,0,0,.67.84,1.38,1.38,0,0,1-.17-.58s.08-.12.12-.07a3.69,3.69,0,0,0,.92,1.09c-.1-.17-.24-.35-.34-.49a5,5,0,0,1,.49.31c.13.09.26.2.4.28a3.29,3.29,0,0,0,1.08.46,3.54,3.54,0,0,0,.92.08A3.82,3.82,0,0,1,47.4,26.64Z"/><path class="cls-23" d="M48.58,26.18a4.29,4.29,0,0,1-1.32-1l0,0L47.16,25c-.27-.28-.54-.58-.79-.89s-.56-.66-.83-1a12.92,12.92,0,0,0,1.43,2,4.56,4.56,0,0,0,2.48,1.43h0A5.61,5.61,0,0,1,48.58,26.18Z"/><path class="cls-21" d="M38.87,26.53h-.2v0a2,2,0,0,0-1.07-.67,6.5,6.5,0,0,0-1.75-.37,14.83,14.83,0,0,0-3.92.39,10.62,10.62,0,0,0-3.39,1.27,2.85,2.85,0,0,0-1,.82.9.9,0,0,0-.1.67s0,0,0,0c.12.31.15.63.24.94a4.81,4.81,0,0,0,.32.82A8.22,8.22,0,0,0,28.93,32a17.31,17.31,0,0,0,2.73,2.54A6.32,6.32,0,0,1,33,36a2.69,2.69,0,0,1,.22.92,4.16,4.16,0,0,1,0,1.17,30.18,30.18,0,0,1-.88,3.52c-.49.89-1.85.86-2.52,1.58a1.31,1.31,0,0,0-.41.94c0,.29.36.43.61.41.19.37.92.41,1.29.3l.07.09c.31.34,1,.21,1.35.17a2.88,2.88,0,0,0,1.33-.5h0a.93.93,0,0,0,.43-.25,1.72,1.72,0,0,0,.06-1.16,1.59,1.59,0,0,1-.06-.3,1.82,1.82,0,0,1,.22-1.28c.22-.49.41-1,.62-1.5.42-.94,1-1.81,1.42-2.74a6.17,6.17,0,0,0,.36-.93,1.65,1.65,0,0,0,.13-1,1.14,1.14,0,0,0-.08-.33,2,2,0,0,0,.25.14.65.65,0,0,0,.07-.34,1.11,1.11,0,0,0-.16-.24.29.29,0,0,0,.16,0c0-.14-.07-.28-.12-.41l-.46-.57a6.42,6.42,0,0,1-.6-.93,3.29,3.29,0,0,1-.39-1.18,4.73,4.73,0,0,1,.11-1.3,6,6,0,0,1,.87-2.19,4,4,0,0,1,.85-.94,2.67,2.67,0,0,1,.61-.4.73.73,0,0,1,.24-.07s0,0,.06,0l.24,0S38.93,26.53,38.87,26.53Z"/><path class="cls-22" d="M38.42,26.57a2.06,2.06,0,0,0-.49.25,4.52,4.52,0,0,0-.87.76,6,6,0,0,0-1.15,2.31,4.12,4.12,0,0,0,0,2.48,7.75,7.75,0,0,0,1.36,2.09,3.45,3.45,0,0,1-.44-.24c-.06,0-.18.1-.12.15a2.32,2.32,0,0,1,.6.61,6.32,6.32,0,0,0-.56-.33c-.06,0-.16.11-.1.16a1.3,1.3,0,0,1,.45,1.09,5.16,5.16,0,0,1-.13.5,10,10,0,0,1-.52,1.27c-.38.75-.81,1.46-1.17,2.22s-.68,1.52-1,2.29a1.42,1.42,0,0,0,0,.84c.09.51.43,1,0,1.34v0a1.5,1.5,0,0,1-.4.23l-.2.08a3.31,3.31,0,0,1-1.81.32.69.69,0,0,1-.45-.24s0,0,0,0l0,0c-.14-.22,0-.5.17-.67a2.8,2.8,0,0,1,.63-.55l.16-.21c-.53.29-1.35.91-1.13,1.49a1.33,1.33,0,0,1-1-.19.27.27,0,0,1-.07-.08s0,0,0,0c-.13-.26.14-.6.31-.77a2.28,2.28,0,0,1,.6-.41,1.37,1.37,0,0,1,.17-.17c-.54.21-1.21.6-1.26,1.25a.2.2,0,0,0,0,.07,1.13,1.13,0,0,1-.24-.08c-.29-.14-.16-.51,0-.73a2.28,2.28,0,0,1,1.25-.87,3,3,0,0,0,1.34-.84,1.94,1.94,0,0,0,0,.2,1.71,1.71,0,0,0,.21-.26c.34-1.21.69-2.4.92-3.64a5.17,5.17,0,0,0-.05-2,2.94,2.94,0,0,0-1-1.42c-1-.92-2.06-1.67-3-2.66a6.72,6.72,0,0,1-1.08-1.7,8.65,8.65,0,0,1-.42-1h0a0,0,0,0,0,0,0c-.12-.56-.36-1.22.11-1.66A5.28,5.28,0,0,1,29.08,27a10.75,10.75,0,0,1,3.27-1,14.79,14.79,0,0,1,3.31-.31,6.36,6.36,0,0,1,1.62.31,2.54,2.54,0,0,1,1.17.61Z"/><path class="cls-24" d="M37.28,26a6.36,6.36,0,0,0-1.62-.31,14.79,14.79,0,0,0-3.31.31,10.75,10.75,0,0,0-3.27,1,5.28,5.28,0,0,0-1.21.77c-.47.44-.23,1.1-.11,1.66a0,0,0,0,1,0,0h0a8.65,8.65,0,0,0,.42,1,7.46,7.46,0,0,0,.89,1.48c-.06-.12-.11-.23-.16-.35s.1-.11.13,0a3.5,3.5,0,0,0,.6,1c.29.29.59.56.9.82a6.17,6.17,0,0,0,.74.43,4.58,4.58,0,0,0-.78-1.46c0-.07,0-.15.09-.09a12.27,12.27,0,0,0,1.85,1.17c-.21-.3-.43-.59-.64-.9,0-.06,0-.12.09-.09,3.25,1.71,3.2,5.15,2.94,8.44l.42-1c.36-.76.79-1.47,1.17-2.22a10,10,0,0,0,.52-1.27,5.16,5.16,0,0,0,.13-.5,1.3,1.3,0,0,0-.45-1.09c-.06-.05,0-.18.1-.16a6.32,6.32,0,0,1,.56.33,2.32,2.32,0,0,0-.6-.61c-.06,0,.06-.19.12-.15a3.45,3.45,0,0,0,.44.24,7.75,7.75,0,0,1-1.36-2.09,4.12,4.12,0,0,1,0-2.48,6,6,0,0,1,1.15-2.31,4.52,4.52,0,0,1,.87-.76,2.06,2.06,0,0,1,.49-.25h0A2.54,2.54,0,0,0,37.28,26Z"/><path class="cls-20" d="M30.62,43.32c-.2.11-.4.22-.61.31a.07.07,0,0,1-.09,0,1.51,1.51,0,0,1-.13-.29,1,1,0,0,0-.19.27c-.11.22-.24.59,0,.73a1.13,1.13,0,0,0,.24.08.2.2,0,0,1,0-.07A1.37,1.37,0,0,1,30.62,43.32Z"/><path class="cls-20" d="M37.28,26a6.36,6.36,0,0,0-1.62-.31,14.79,14.79,0,0,0-3.31.31,10.75,10.75,0,0,0-3.27,1,5.28,5.28,0,0,0-1.21.77c-.47.44-.23,1.1-.11,1.66a0,0,0,0,1,0,0h0a8.65,8.65,0,0,0,.42,1,6.72,6.72,0,0,0,1.08,1.7,9.31,9.31,0,0,0,.84.82,3.74,3.74,0,0,1,0-1.85c0-.07.14-.06.13,0a2.25,2.25,0,0,0,.16,1,4,4,0,0,1,.78-2s.11,0,.11.05c0,.24-.05.49-.08.73a3.14,3.14,0,0,1,2.19-1.48c.06,0,.11,0,.08.09a2.82,2.82,0,0,0-.38,1.11,2.54,2.54,0,0,1,.75-.71.07.07,0,0,1,.09.09c-.88,1.74,1.18,3.12,1.51,4.71a.06.06,0,0,1-.1.07c-.29-.21-.58-.43-.89-.62a4.38,4.38,0,0,1,.47.81c0,.05,0,.1-.1.07a4.52,4.52,0,0,0-.95-.55,3.7,3.7,0,0,1,1,2.46c0,.06-.07.1-.11,0-.2-.25-.39-.51-.61-.74A6.76,6.76,0,0,1,34.46,39a7.66,7.66,0,0,1-.31,1.57A5.3,5.3,0,0,1,33.58,42c-.16.25-.33.52-.12.81a2.83,2.83,0,0,1,.32.45.39.39,0,0,1-.14.5,3,3,0,0,1-1.73.44.06.06,0,0,1-.06-.08,1.43,1.43,0,0,1,.49-.82l-.12,0-.1.14a2.8,2.8,0,0,0-.63.55c-.13.17-.31.45-.17.67l0,0s0,0,0,0a.69.69,0,0,0,.45.24,3.31,3.31,0,0,0,1.81-.32l.2-.08a1.5,1.5,0,0,0,.4-.23v0c.47-.35.13-.83,0-1.34a1.42,1.42,0,0,1,0-.84c.27-.77.61-1.55,1-2.29s.79-1.47,1.17-2.22a10,10,0,0,0,.52-1.27,5.16,5.16,0,0,0,.13-.5,1.3,1.3,0,0,0-.45-1.09c-.06-.05,0-.18.1-.16a6.32,6.32,0,0,1,.56.33,2.32,2.32,0,0,0-.6-.61c-.06,0,.06-.19.12-.15a3.45,3.45,0,0,0,.44.24,7.75,7.75,0,0,1-1.36-2.09,4.12,4.12,0,0,1,0-2.48,6,6,0,0,1,1.15-2.31,4.52,4.52,0,0,1,.87-.76,2.06,2.06,0,0,1,.49-.25h0A2.54,2.54,0,0,0,37.28,26Z"/><path class="cls-20" d="M37.28,26a6.36,6.36,0,0,0-1.62-.31,14.79,14.79,0,0,0-3.31.31,10.75,10.75,0,0,0-3.27,1,5.28,5.28,0,0,0-1.21.77c-.47.44-.23,1.1-.11,1.66a0,0,0,0,1,0,0h0a8.65,8.65,0,0,0,.42,1A7.67,7.67,0,0,0,29.12,32a3.3,3.3,0,0,1,.5-.88,8.47,8.47,0,0,1,1.66-1.67,10.88,10.88,0,0,1,2.2-1.36l1.09-.46a2.73,2.73,0,0,1,1.08-.27s.07,0,.07.07a1.59,1.59,0,0,1-.21.6,3.14,3.14,0,0,0-.31.82,5.68,5.68,0,0,0-.05,2.25,35.3,35.3,0,0,0,1.19,3.46,6.32,6.32,0,0,1-.26,3.77l.33-.64a10,10,0,0,0,.52-1.27,5.16,5.16,0,0,0,.13-.5,1.3,1.3,0,0,0-.45-1.09c-.06-.05,0-.18.1-.16a6.32,6.32,0,0,1,.56.33,2.32,2.32,0,0,0-.6-.61c-.06,0,.06-.19.12-.15a3.45,3.45,0,0,0,.44.24,7.75,7.75,0,0,1-1.36-2.09,4.12,4.12,0,0,1,0-2.48,6,6,0,0,1,1.15-2.31,4.52,4.52,0,0,1,.87-.76,2.06,2.06,0,0,1,.49-.25h0A2.54,2.54,0,0,0,37.28,26Z"/><path class="cls-20" d="M32.09,43.34a1.07,1.07,0,0,0-.34.16c-.15.1-.27.24-.41.34s-.46.22-.62,0,0-.43.22-.64a2.33,2.33,0,0,0-.57.4c-.17.17-.44.51-.31.77,0,0,0,0,0,0a.27.27,0,0,0,.07.08,1.33,1.33,0,0,0,1,.19C31,44.21,31.58,43.66,32.09,43.34Z"/><path class="cls-23" d="M33.7,36.34a3.13,3.13,0,0,0-1-1.7,23.07,23.07,0,0,0-1.84-1.57s-.06,0,0,0c.53.46,1.07.9,1.56,1.4a3.56,3.56,0,0,1,1.23,1.91,6.27,6.27,0,0,1-.24,2.15c-.16.78-.35,1.54-.52,2.31,0,0,0,0,0,0a13.79,13.79,0,0,0,.62-2.35A7,7,0,0,0,33.7,36.34Z"/><path class="cls-23" d="M30.72,42.9a1.81,1.81,0,0,0-.69.27c-.14.11-.34.3-.3.5s.07,0,.08,0a1.3,1.3,0,0,1,.9-.65S30.78,42.89,30.72,42.9Z"/><path class="cls-23" d="M31.15,43.27a1.06,1.06,0,0,0-.66.58s0,.06.06,0a2.88,2.88,0,0,0,.22-.27,1.31,1.31,0,0,1,.37-.24S31.22,43.25,31.15,43.27Z"/><path class="cls-23" d="M32.4,43.46a1,1,0,0,0-.45.28,2.53,2.53,0,0,0-.18.27.84.84,0,0,0-.13.27c0,.08.08,0,.1,0s.15-.24.22-.37a.84.84,0,0,1,.43-.33S32.48,43.44,32.4,43.46Z"/><path class="cls-21" d="M49.09,42.84h0s.11-.07.11-.12a.19.19,0,0,0-.07-.13,1.58,1.58,0,0,1-.33-.52,3,3,0,0,1-.16-.59v0a21.83,21.83,0,0,1-.34-2.41c-.07-.81-.08-1.62-.1-2.43s-.11-1.67-.06-2.5a5.93,5.93,0,0,1,.07-.59,2.77,2.77,0,0,0,.12-.41c0-.12-.09-.23-.19-.33h.07a.13.13,0,0,0,.09-.12c0-.16-.17-.2-.31-.21l.12-.08c.05,0,.13-.15.05-.18a2.9,2.9,0,0,1-1.11-.71,3.37,3.37,0,0,1-.69-1.13,21.19,21.19,0,0,1-.78-2.61c-.23-.87-.46-1.76-.63-2.65-.08-.4-.14-.8-.21-1.19,0,0,0-.05,0-.07a13.87,13.87,0,0,0-2.16-5.45A17.18,17.18,0,0,0,39,14.22a7.89,7.89,0,0,0-5-1.75A13.64,13.64,0,0,0,31,13c-1,.25-2,.57-3.06.88a23.67,23.67,0,0,1-2.73.68,7.7,7.7,0,0,1-2.75,0,11.66,11.66,0,0,0-1.15-.64,4.66,4.66,0,0,0-2.22-.5,9.49,9.49,0,0,0-1.3.2,4.94,4.94,0,0,1-1.14.19h0s0,0-.06,0h-.1s-.09.08,0,.09h.11a14.69,14.69,0,0,0-.25,2.88c0,1.06,0,2.12.13,3.18a45,45,0,0,0,1,6.32A57,57,0,0,0,19.07,32a12.09,12.09,0,0,0,1.22,2.63c.37.55,1,1.47,1.74,1.18a6.44,6.44,0,0,0,3.64-1.36,22.72,22.72,0,0,0,1.81-1.73c.63-.61,1.18-1.29,1.76-1.95a24.23,24.23,0,0,1,1.84-2c.32-.28.62-.56.92-.86a4.07,4.07,0,0,1,1.07-.71,4.36,4.36,0,0,1,1.35-.48,4.51,4.51,0,0,1,1.37-.11,3.89,3.89,0,0,1,1.28.4c.3.16.59.35.89.54.46.43.87.9,1.3,1.38s.63.78.94,1.19.6.77.87,1.17a16.44,16.44,0,0,0,1.66,2.06c.3.32.59.63.91.92a14.07,14.07,0,0,1,1.84,3.44A21.68,21.68,0,0,1,46.1,40a7.48,7.48,0,0,1,.11,1.49c-.18.6-.64.87-1.22,1.15a2,2,0,0,0-.9.69c-.43.64-.3,1.88.7,1.69a1.74,1.74,0,0,0,.57.3,1.54,1.54,0,0,0,1.26-.18,1.21,1.21,0,0,0,.88.13,2.25,2.25,0,0,0,1-.54,1.82,1.82,0,0,0,.42-.36,1.23,1.23,0,0,0,.23-1.12s.12-.08.11-.12A.77.77,0,0,0,49.09,42.84Z"/><path class="cls-22" d="M49,43.67a1.11,1.11,0,0,1-.36.77,1.1,1.1,0,0,1-.18.14,1.39,1.39,0,0,1-.73.46l-.06,0a1.19,1.19,0,0,1-.46.06A.69.69,0,0,1,46.8,45c-.37-.21-.2-.72-.09-1a1.8,1.8,0,0,1,.29-.57.49.49,0,0,1,.1-.15,1.43,1.43,0,0,1,.32-.28,1.38,1.38,0,0,0-.76.79A1.62,1.62,0,0,0,46.47,45l.06.1a.77.77,0,0,1-.18.1,1.31,1.31,0,0,1-.68,0,1.28,1.28,0,0,1-.92-.52c-.28-.38,0-.87.26-1.19a3.35,3.35,0,0,1,.43-.49h0l-.1,0-.18.11-.23.28a1.73,1.73,0,0,0-.44,1.11.69.69,0,0,0,.15.35c-.47-.06-.67-.42-.65-.94s.67-1,1.19-1.24a2,2,0,0,0,1-.93.86.86,0,0,0,0,.16,2,2,0,0,0,.14-.34A8.83,8.83,0,0,0,45.73,38a15,15,0,0,0-.84-2,9.11,9.11,0,0,0-.78-1.2c.24.2.48.41.7.62,0,0,.14-.07.1-.12a8.08,8.08,0,0,0-.94-.91c-.37-.31-.68-.66-1-1a14.65,14.65,0,0,1-1-1.1c-.32-.38-.58-.8-.88-1.2l-.81-1.08a11.6,11.6,0,0,0-.81-1c-.32-.32-.58-.69-.9-1a11.43,11.43,0,0,0-1-.82s0,0-.05,0l-.3-.19a3.46,3.46,0,0,0-1.08-.37,4.91,4.91,0,0,0-2.31.21,5.71,5.71,0,0,0-1.06.5,3.59,3.59,0,0,0-.91.69c-.6.59-1.23,1.14-1.8,1.75-1.25,1.33-2.38,2.76-3.69,4a7.16,7.16,0,0,1-2.14,1.47,6.58,6.58,0,0,1-2.08.54s0,0,0,0a.51.51,0,0,1-.17,0h-.14a1.4,1.4,0,0,1-.9-.58,6.93,6.93,0,0,1-.81-1.19,16.9,16.9,0,0,1-1-2.49,58.8,58.8,0,0,1-1.57-5.82,45.78,45.78,0,0,1-.93-5.82c-.09-1-.14-1.95-.14-2.92s.11-2,.19-3a14.65,14.65,0,0,0,2.06-.31,4.73,4.73,0,0,1,2.4.45c1.19.51,2.2,1.4,3.39,1.89a3.56,3.56,0,0,0,.8.07,8,8,0,0,1-1.93-.88l-.61-.39A10.88,10.88,0,0,0,28,14a21.73,21.73,0,0,1,6.25-1.32,8.29,8.29,0,0,1,5.16,2.21,13.28,13.28,0,0,1,2,2.17,27,27,0,0,1,1.65,2.41,12.76,12.76,0,0,1,1,2.16c.19.56.34,1.14.49,1.71s.19,1.35.31,2c.17,1,.44,2,.69,2.91a20,20,0,0,0,.79,2.49,3.17,3.17,0,0,0,.71,1,2.42,2.42,0,0,0,.92.59h0s-.07.12,0,.15,0,.08,0,.08a.51.51,0,0,1,.2,0H48c-.06,0-.12.09-.08.14a3.33,3.33,0,0,1,.25.28c.1.14,0,.26,0,.4A4.37,4.37,0,0,0,48,34.53c0,.77,0,1.55.06,2.32a27.62,27.62,0,0,0,.45,4.71s0,0,0,0,0,.24.07.36a1.86,1.86,0,0,0,.19.46l.1.14h0s0,0,0,0a1.88,1.88,0,0,1,.16.69A1.17,1.17,0,0,1,49,43.67Z"/><path class="cls-20" d="M44.93,43.41l.23-.28.16-.09a.57.57,0,0,1,.08-.13,3.09,3.09,0,0,0-.8.92.07.07,0,0,1-.09,0,.59.59,0,0,1-.29-.52,1,1,0,0,0-.23.59c0,.52.18.88.65.94a.69.69,0,0,1-.15-.35A1.73,1.73,0,0,1,44.93,43.41Z"/><path class="cls-20" d="M46.66,43.74a1.74,1.74,0,0,1,.23-.4c-.44.4-.89.82-1.45.66-.38-.11-.36-.47-.22-.79l-.21.27c-.23.32-.54.81-.26,1.19a1.28,1.28,0,0,0,.92.52,1.31,1.31,0,0,0,.68,0,.77.77,0,0,0,.18-.1l-.06-.1A1.62,1.62,0,0,1,46.66,43.74Z"/><path class="cls-20" d="M26.78,32.71a2.85,2.85,0,0,1-2.65-.06,3,3,0,0,1-1.41-2.13,7.79,7.79,0,0,1,.12-2.1,7.43,7.43,0,0,0-.05-2.66c-.22-1-.57-1.91-.84-2.86a10.89,10.89,0,0,1-.42-2.83,10.7,10.7,0,0,0-.16-2.53,6.25,6.25,0,0,0-.93-2,5.21,5.21,0,0,0-2.31-1.88,6.64,6.64,0,0,1-1.52.22c-.08,1-.19,2-.19,3s0,1.95.14,2.92a45.78,45.78,0,0,0,.93,5.82,58.8,58.8,0,0,0,1.57,5.82,16.9,16.9,0,0,0,1,2.49,6.93,6.93,0,0,0,.81,1.19,1.4,1.4,0,0,0,.9.58h.14a.51.51,0,0,0,.17,0s0,0,0,0a6.58,6.58,0,0,0,2.08-.54,7.16,7.16,0,0,0,2.14-1.47c.7-.68,1.35-1.4,2-2.13A5.47,5.47,0,0,1,26.78,32.71Z"/><path class="cls-20" d="M46.66,43.74a1.43,1.43,0,0,1,.6-.72l0,0a1.94,1.94,0,0,0-.59.44c-.17.19-.27.41-.42.61a.81.81,0,0,1-.83.26c-.51-.06-.58-.42-.46-.78-.23.32-.5.78-.23,1.14a1.28,1.28,0,0,0,.92.52,1.31,1.31,0,0,0,.68,0,.77.77,0,0,0,.18-.1l-.06-.1A1.62,1.62,0,0,1,46.66,43.74Z"/><path class="cls-20" d="M44.93,43.41l.19-.23a1.47,1.47,0,0,0-.64.8.06.06,0,0,1-.06.05c-.28,0-.39-.1-.4-.29a.58.58,0,0,0,0,.19c0,.52.18.88.65.94a.69.69,0,0,1-.15-.35A1.73,1.73,0,0,1,44.93,43.41Z"/><path class="cls-20" d="M49,43.25a1.88,1.88,0,0,0-.16-.69s0,0,0,0h0l-.1-.14a1.86,1.86,0,0,1-.19-.46c0-.12-.05-.24-.07-.36s0,0,0,0a27.62,27.62,0,0,1-.45-4.71c0-.77-.08-1.55-.06-2.32a4.37,4.37,0,0,1,.13-1.08c0-.14.12-.26,0-.4a3.33,3.33,0,0,0-.25-.28c0-.05,0-.14.08-.14h.11a.51.51,0,0,0-.2,0s0,0,0-.08,0-.11,0-.15h0a2.42,2.42,0,0,1-.92-.59,3.17,3.17,0,0,1-.71-1,20,20,0,0,1-.79-2.49c-.25-1-.52-1.93-.69-2.91-.12-.67-.2-1.35-.31-2s-.3-1.15-.49-1.71a12.76,12.76,0,0,0-1-2.16A27,27,0,0,0,41.41,17a13.28,13.28,0,0,0-2-2.17,8.29,8.29,0,0,0-5.16-2.21A21.73,21.73,0,0,0,28,14a10.88,10.88,0,0,1-5.28.71l.61.39a8,8,0,0,0,1.93.88,3.56,3.56,0,0,1-.8-.07c-1.19-.49-2.2-1.38-3.39-1.89a4.73,4.73,0,0,0-2.4-.45,14.65,14.65,0,0,1-2.06.31c-.08,1-.19,2-.19,3s0,1.95.14,2.92a45.78,45.78,0,0,0,.93,5.82,58.8,58.8,0,0,0,1.57,5.82,16.9,16.9,0,0,0,1,2.49,6.93,6.93,0,0,0,.81,1.19,1.4,1.4,0,0,0,.9.58h.14a.51.51,0,0,0,.17,0s0,0,0,0a6.58,6.58,0,0,0,2.08-.54,7.16,7.16,0,0,0,2.14-1.47c1.31-1.26,2.44-2.69,3.69-4,.57-.61,1.2-1.16,1.8-1.75a3.59,3.59,0,0,1,.91-.69,5.71,5.71,0,0,1,1.06-.5,4.91,4.91,0,0,1,2.31-.21,3.46,3.46,0,0,1,1.08.37l.3.19s0,0,.05,0a11.43,11.43,0,0,1,1,.82c.32.31.58.68.9,1a11.6,11.6,0,0,1,.81,1L41.1,31c.3.4.56.82.88,1.2a14.65,14.65,0,0,0,1,1.1l.51.52c-.53-.78-1-1.64-1.46-2.43-.79-1.26-1.69-2.47-2.47-3.74A9.88,9.88,0,0,0,36,24.54a0,0,0,0,1-.06,0l-.09-.06-.42-.18s0,0,0,0a4.09,4.09,0,0,0-1.24-.15,5.28,5.28,0,0,0-2.32.41,7.05,7.05,0,0,0-2,1.57c-1,1.06-2.14,2.37-3.66,2.7-2.15.46-3-1.58-3.71-3.3a7.07,7.07,0,0,1,.24,3.7.07.07,0,0,1-.13,0,6.45,6.45,0,0,0-.84-2.07,4.48,4.48,0,0,0-.7-.81c-.26-.24-.57-.43-.82-.68a3.75,3.75,0,0,1-.81-3.33c.43-2.21,2.73-5.22.57-7.16-.06-.05,0-.12.06-.11,1.83.27,3.63,1.28,5.49,1.25a7.43,7.43,0,0,0,1-.3,2.81,2.81,0,0,1-1.14-.45c-.05,0,0-.1,0-.11a15.33,15.33,0,0,0,3.83-.88,17.4,17.4,0,0,1,3.48-.95,6.51,6.51,0,0,1,4.41,1.07,11.38,11.38,0,0,1,3.42,3.59,20.92,20.92,0,0,1,2,4.65c.25.83.48,1.66.7,2.49l.12.47c.19.48.41.95.63,1.41.51,1.06,1.08,2.1,1.64,3.15.15.28.31.57.48.84a2.81,2.81,0,0,0,.49.68c.21.17.65.27.68.59a5.1,5.1,0,0,1-.28,1.32c0,.12-.05.25-.08.37.13-.3.23-.61.37-.91,0-.07.13,0,.12.05a15,15,0,0,0-.1,2.51c.1-.23.2-.46.32-.68a.06.06,0,0,1,.12,0,19.23,19.23,0,0,0-.17,2.4,22.17,22.17,0,0,0,.22,2.29c0,.07-.1.09-.13,0s-.14-.26-.22-.39A14.19,14.19,0,0,1,47.89,41c0,.06-.06.13-.11.07a5.2,5.2,0,0,0-.46-.57A5.35,5.35,0,0,1,48,41.8a.06.06,0,0,1-.11.06,2.87,2.87,0,0,0-.59-.39c.62.73,1.45,1.86.49,2.52-.14.1-.78.6-.89.21a1.15,1.15,0,0,1,.26-1l0,0a.49.49,0,0,0-.1.15,1.8,1.8,0,0,0-.29.57c-.11.32-.28.83.09,1a.69.69,0,0,0,.41.13,1.19,1.19,0,0,0,.46-.06l.06,0a1.39,1.39,0,0,0,.73-.46,1.1,1.1,0,0,0,.18-.14,1.11,1.11,0,0,0,.36-.77A1.17,1.17,0,0,0,49,43.25Z"/><path class="cls-20" d="M31.76,27.29A7.41,7.41,0,0,0,29,29.16c-.66.69-1.27,1.43-1.95,2.1-.39.37-2,1.94-2.44.95a11.37,11.37,0,0,1-.41-1.65,6.41,6.41,0,0,0-.57-1.25,4.27,4.27,0,0,0-.8-1.08l0,0a5.28,5.28,0,0,1-.14,1,.07.07,0,0,1-.13,0A7.4,7.4,0,0,0,22,27.64c-.46-.27-.95-.49-1.42-.74a10.48,10.48,0,0,1-2-1.33,8.07,8.07,0,0,1-1.53-1.72c.11.6.23,1.19.37,1.78a58.8,58.8,0,0,0,1.57,5.82,16.9,16.9,0,0,0,1,2.49,6.93,6.93,0,0,0,.81,1.19,1.4,1.4,0,0,0,.9.58h.14a.51.51,0,0,0,.17,0s0,0,0,0a6.58,6.58,0,0,0,2.08-.54,7.16,7.16,0,0,0,2.14-1.47c1.31-1.26,2.44-2.69,3.69-4,.57-.61,1.2-1.16,1.8-1.75a3.59,3.59,0,0,1,.91-.69c.26-.14.55-.31.83-.43A10.22,10.22,0,0,0,31.76,27.29Z"/><path class="cls-20" d="M41.28,17a12.86,12.86,0,0,1,1.33,2.48A43.25,43.25,0,0,1,44,24.38,19.08,19.08,0,0,0,45.74,29l-.21-.76c-.25-1-.52-1.93-.69-2.91-.12-.67-.2-1.35-.31-2s-.3-1.15-.49-1.71a12.76,12.76,0,0,0-1-2.16A27,27,0,0,0,41.41,17c-.33-.43-.67-.85-1-1.25C40.69,16.19,41,16.61,41.28,17Z"/><path class="cls-25" d="M16.76,14c-.15.06-.15.28-.14.41h0c0-.12,0-.33.13-.38S16.77,14,16.76,14Z"/><path class="cls-23" d="M38.3,16.27a12.41,12.41,0,0,1,1.51,2.1,26.28,26.28,0,0,1,1.3,2.46c.15.32.3.63.46,1a20.69,20.69,0,0,0-1.69-4,12.66,12.66,0,0,0-1.25-1.57,7,7,0,0,0-1.93-1.4h0C37.16,15.35,37.81,15.75,38.3,16.27Z"/><path class="cls-22" d="M25.89,48s0,0,0,0a1.63,1.63,0,0,0-.09-.46c-.13-.37-.33-.72-.49-1.08a7.2,7.2,0,0,1-.49-1.37c0-.15,0-.31-.07-.46a3.54,3.54,0,0,1-.09-.86c0-.73,0-1.45.06-2.17s0-1.6-.07-2.39c0-.3,0-.61-.09-.91-.06-.45-.14-.9-.21-1.35a22.89,22.89,0,0,1-.29-2.61,13.9,13.9,0,0,0-.3-2.32c-.05-.19-.09-.38-.14-.58a2.14,2.14,0,0,0-.1-.22l-.19-.32a.38.38,0,0,1,0-.2.39.39,0,0,1-.08-.1c0-.05,0-.15,0-.2s.05-.24.07-.37,0-.25.05-.38c-.09-.75-.11-1.51-.23-2.26a10.87,10.87,0,0,0-.57-2.1c-.26-.68-.59-1.33-.85-2a13.35,13.35,0,0,1-.54-4.63h0c0-.15,0-.31-.05-.46s-.11-.56-.14-.85a5.07,5.07,0,0,0-.46-1.46,3.8,3.8,0,0,0-.52-.74,1.64,1.64,0,0,0-.66-.5,5.36,5.36,0,0,0,.14-.54A7.15,7.15,0,0,0,19.63,13a1,1,0,0,0-.23-.8,4.21,4.21,0,0,0,1.22-1.55c.18-.42.33-.85.5-1.27a16.14,16.14,0,0,0,.95-1.85,2.86,2.86,0,0,0,.05-1,9.72,9.72,0,0,0-.29-1.78,2.13,2.13,0,0,0-1-1.32,2.92,2.92,0,0,0-.93-.26,3.44,3.44,0,0,1-1-.33,1.76,1.76,0,0,1-.34-.25c-.15-.26-.28-.53-.45-.78a1.25,1.25,0,0,0-1.34-.62A2.64,2.64,0,0,0,15.43,2a3.88,3.88,0,0,0-.7-.3,2.81,2.81,0,0,0-1.6,0A6.61,6.61,0,0,0,12.2,2h0a5.51,5.51,0,0,1-1.38-.31c-.15-.05-.28-.15-.42-.21l-.16-.07-.07-.06A3.64,3.64,0,0,0,9.37.84,2,2,0,0,0,7.72.76,1.19,1.19,0,0,0,7.29.18C6.71-.21,5.9.12,5.37.41a6.91,6.91,0,0,0-1.5,1.14,1.25,1.25,0,0,1-.66-.06,3.22,3.22,0,0,0-.86-.18A2,2,0,0,0,.76,2.2a3.4,3.4,0,0,0-.43,1A10,10,0,0,0,.07,4.61a11.89,11.89,0,0,0,0,2.92q.06.48.15,1c.06.34.15.68.19,1a3.76,3.76,0,0,1-.14,1.29c-.07.28-.32.74,0,.92.14.08.3,0,.42-.08a4.32,4.32,0,0,0,1-.91,5.49,5.49,0,0,0,.49-.67,6.91,6.91,0,0,0-.11.9,3,3,0,0,0,.11,1.15s0,0,0,0a5.21,5.21,0,0,0-.59,1.12A5,5,0,0,0,1.38,16a4.49,4.49,0,0,0,1.2,2.17A3.13,3.13,0,0,0,3.9,19a2.88,2.88,0,0,0,1.62,0h0c.17.09.32.2.49.3a10.84,10.84,0,0,0,.09,1.27,8.92,8.92,0,0,1,0,1h0a26.06,26.06,0,0,1-.64,2.78c-.26.91-.51,1.82-.68,2.76a8.86,8.86,0,0,0-.12,2.72,5,5,0,0,0,.37,1.33c.25.8.38,1.62.55,2.44.2,1,.37,2,.54,3s.29,2,.47,2.93.51,1.92.78,2.87A15.59,15.59,0,0,1,8,45.08a2,2,0,0,1-.11,1,1.55,1.55,0,0,1-.71.72,1.81,1.81,0,0,0-.72.14A1.56,1.56,0,0,0,4.7,48.23a1.21,1.21,0,0,0,.6,1,1.39,1.39,0,0,0,1.37.09,1.4,1.4,0,0,0,.76,0l0,0a2,2,0,0,0,.82.21A3,3,0,0,0,10,49.07a.05.05,0,0,0,.08,0,1.87,1.87,0,0,0,.3-1.25.49.49,0,0,1,.18-.44c.14-.09.32-.12.46-.22.31-.25.16-.65,0-.94a6.14,6.14,0,0,1-.32-.69,2.92,2.92,0,0,1-.15-.65c0-.42.1-.85.16-1.28.1-.77.22-1.54.3-2.31a22.7,22.7,0,0,0,.1-2.33A17.64,17.64,0,0,0,11,37a1.05,1.05,0,0,1,.24-.23,1.73,1.73,0,0,0,.28-.19,7.69,7.69,0,0,0,.76.38h0a15.64,15.64,0,0,0,2.34.47,10.28,10.28,0,0,0,2.71-.22c.42-.09.83-.22,1.25-.32l.06,0h0a1.41,1.41,0,0,1,.22-.06l.4-.2s.05,0,.07,0a4.37,4.37,0,0,1,.5.93c.14.31.29.63.4.95s.21.65.3,1a1.75,1.75,0,0,1,.12.32,3.83,3.83,0,0,1,.26.81c.1.38.2.76.28,1.15.05.24.1.49.14.74h0a2.43,2.43,0,0,1,.08.53v0a10.59,10.59,0,0,1,0,1.95,6,6,0,0,1-.12.85,2.09,2.09,0,0,1-.25.74,2,2,0,0,1-.46.42,1.79,1.79,0,0,0-.58.64,2.69,2.69,0,0,0-.16.45,1.34,1.34,0,0,0,0,.2c0,.74.87,1.66,1.63,1.19l0,0a1.57,1.57,0,0,0,.75.4,1.73,1.73,0,0,0,1.41-.38,2.29,2.29,0,0,0,1.38-.29,1.72,1.72,0,0,0,.51-.46A1.34,1.34,0,0,0,25.89,48Z"/><path class="cls-24" d="M14.63,37.47a10.28,10.28,0,0,0,2.71-.22c.42-.09.83-.22,1.25-.32l.06,0h0a1.41,1.41,0,0,1,.22-.06l.4-.2s.05,0,.07,0a4.37,4.37,0,0,1,.5.93c.14.31.29.63.4.95s.21.65.3,1a1.75,1.75,0,0,1,.12.32,3.83,3.83,0,0,1,.26.81l.09.34h.05a10.84,10.84,0,0,0-.49-1.56c-.18-.54-.37-1.08-.58-1.6a12.15,12.15,0,0,0-1.46-2.73A8.08,8.08,0,0,1,16,32.82a6.1,6.1,0,0,1-.88-4.65,5.75,5.75,0,0,0-.53.85s-.06,0,0,0a4.22,4.22,0,0,1,.25-1.16,3,3,0,0,0-.57.76s-.07,0-.06,0c.45-1.94,1.36-3.79,1.44-5.8a5.41,5.41,0,0,1-.48.76s-.05,0-.06,0c0-.4.27-.74.29-1.14a3.56,3.56,0,0,1-.56.67s-.07,0-.06,0c.15-.53.37-1,.5-1.56a3.62,3.62,0,0,1-.36.42s-.06,0-.06,0c.15-.6.31-1.23.45-1.86a3,3,0,0,1-1.8.64,3.36,3.36,0,0,1-2.05-.85s0-.07-.09,0a1.8,1.8,0,0,1-1.31,0c-.5-.14-1-.4-1.47-.51a2.6,2.6,0,0,0-1,0c0,.2-.08.4-.11.61a12.26,12.26,0,0,0,.41,5s0,.06-.05,0c-.14-.25-.22-.52-.35-.78a21.18,21.18,0,0,0,.5,2.09s0,.06,0,0a7.28,7.28,0,0,1-.53-.94,8.35,8.35,0,0,0,.24,1.29s0,.05-.06,0a6.55,6.55,0,0,1-.41-1.15c0,.82-.29,1.6-.35,2.41a10.15,10.15,0,0,0,0,1.46A6.84,6.84,0,0,0,7,30.48a9.09,9.09,0,0,0,1.17,2.67,10,10,0,0,0,1.56,2c.3.28.63.55,1,.81a8,8,0,0,0,.88.65l0,0a7.69,7.69,0,0,0,.76.38h0A15.64,15.64,0,0,0,14.63,37.47Z"/><path class="cls-26" d="M10,1.45c.26.29,1.09.83.81,1.32-.14.25,0,.59-.23.59-.39,0-.79-1.29-1.19-1.33a10.63,10.63,0,0,1,.49,2,9.43,9.43,0,0,1-.24,3.44,5.37,5.37,0,0,0,.83-3.08c0-.69.78-.84.59-.27a7.63,7.63,0,0,0-.13,2.7c.33-2.4.73-3.1,1.76-4-.42.1-.7-.09-1.4.53-.06,0,0-.45,0-.52a3,3,0,0,1,1.69-1,3.94,3.94,0,0,1,1-.22,3.07,3.07,0,0,0-.9.1A6.61,6.61,0,0,0,12.2,2h0a5.51,5.51,0,0,1-1.38-.31c-.15-.05-.28-.15-.42-.21l-.16-.07-.07-.06A3.58,3.58,0,0,0,9.38.84C9.59,1,9.79,1.24,10,1.45Z"/><path class="cls-20" d="M25.89,48s0,0,0,0a1.63,1.63,0,0,0-.09-.46c-.13-.37-.33-.72-.49-1.08a7.2,7.2,0,0,1-.49-1.37c0-.15,0-.31-.07-.46a3.54,3.54,0,0,1-.09-.86c0-.73,0-1.45.06-2.17s0-1.6-.07-2.39c0-.3,0-.61-.09-.91-.06-.45-.14-.9-.21-1.35a22.89,22.89,0,0,1-.29-2.61,13.9,13.9,0,0,0-.3-2.32c-.05-.19-.09-.38-.14-.58a2.14,2.14,0,0,0-.1-.22l-.19-.32a.38.38,0,0,1,0-.2.39.39,0,0,1-.08-.1c0-.05,0-.15,0-.2s.05-.24.07-.37,0-.25.05-.38c-.09-.75-.11-1.51-.23-2.26a10.87,10.87,0,0,0-.57-2.1c-.21-.53-.45-1-.67-1.56a1.19,1.19,0,0,0-.23-.16,12,12,0,0,1,1.21,4.5,17.36,17.36,0,0,1,0,2.6c0,.4-.09.81-.15,1.21s-.15.69-.2,1a4.33,4.33,0,0,1,.54-1,.09.09,0,0,1,.13,0,5.47,5.47,0,0,1,.55,2.34c.16,1,.25,2.12.38,3.18a35.31,35.31,0,0,1,.18,3.71c0,.63-.12,1-.11,1.61s0,1.86.07,2.46a2.27,2.27,0,0,0,.41.84c.18.36-.35.26-.65.37a3.94,3.94,0,0,1,.74.37c.23.14.58.37.54.69s-.42.41-.68.32a7.72,7.72,0,0,0-1.14-.5c.28.31.45.75.11,1.09a1.42,1.42,0,0,1-1.49.22c-.92-.36-.22-1.1.24-1.62-.57.27-1,.81-1.65.89a.08.08,0,0,1-.09-.08c0-.43.4-.76.72-1a4.29,4.29,0,0,1,1.18-.57,20.66,20.66,0,0,1-.37-2.58c0-.81,0-1.62-.09-2.42a17.93,17.93,0,0,0-2-6c0-.07,0-.17.12-.12a1,1,0,0,0,.57.16,5,5,0,0,0-1.61-1.62,6.59,6.59,0,0,1-1.59-2.18,6.09,6.09,0,0,1-.69-2.67c0-.82.42-1.58.44-2.4-.53.45-.84,1.1-1.35,1.57a.09.09,0,0,1-.15-.06,6.48,6.48,0,0,1,.63-3c.46-1.07,1-2.07,1.58-3.1a12,12,0,0,0,1.3-3.37,20.31,20.31,0,0,0,.21-3.74l-.11,0a19.5,19.5,0,0,1-2.15,4.79c-.06.08-.19,0-.16-.06.25-.84.54-1.66.82-2.49a10.93,10.93,0,0,0,.61-2.31c.05-.61.06-1.23.14-1.85.09-.08,0,0,.2-.14a2.41,2.41,0,0,1,.6-.4v0a4.21,4.21,0,0,0,1.22-1.55c.18-.42.33-.85.5-1.27a16.14,16.14,0,0,0,.95-1.85,2.86,2.86,0,0,0,.05-1,9.72,9.72,0,0,0-.29-1.78,2.13,2.13,0,0,0-1-1.32,2.92,2.92,0,0,0-.93-.26,3.44,3.44,0,0,1-1-.33,1.76,1.76,0,0,1-.34-.25c-.15-.26-.28-.53-.45-.78a1.25,1.25,0,0,0-1.34-.62A2.64,2.64,0,0,0,15.43,2a3.76,3.76,0,0,0-.62-.27l.11.05c1.8,1,2.44,3.57,2.17,5.5-.13,1-.56,1.84-.7,2.8a7.3,7.3,0,0,0-.08,1.55,2.27,2.27,0,0,1,0,.9c-.14.35-.48.28-.76.12-.5-.28-.86-1-1.38-1.23s-1.11-.65-1.56-.84-.8-.92-1.21-1.12a10.14,10.14,0,0,0-2.09-.9,4.89,4.89,0,0,0-3.39.85,3.77,3.77,0,0,1-2.18.67A.11.11,0,0,1,3.61,10c0-1,.83-1.21,1.63-1.32a3,3,0,0,0-.84-.48,1.37,1.37,0,0,1-.69-.46,1.32,1.32,0,0,1-.09-1c.11-.45,0-.86.28-1.23a11.4,11.4,0,0,1,.84-1c.31-.33.85-1.09,1.31-1.15C7.51,3.09,7.52.85,7.94,2.34A5.43,5.43,0,0,0,8,.68L7.72.76A1.19,1.19,0,0,0,7.29.18C6.71-.21,5.9.12,5.37.41a6.91,6.91,0,0,0-1.5,1.14,1.25,1.25,0,0,1-.66-.06,3.22,3.22,0,0,0-.86-.18A2,2,0,0,0,.76,2.2a3.4,3.4,0,0,0-.43,1A10,10,0,0,0,.07,4.61a11.89,11.89,0,0,0,0,2.92q.06.48.15,1c.06.34.15.68.19,1a3.76,3.76,0,0,1-.14,1.29c-.07.28-.32.74,0,.92.14.08.3,0,.42-.08a4.32,4.32,0,0,0,1-.91,5.49,5.49,0,0,0,.49-.67,6.91,6.91,0,0,0-.11.9,3,3,0,0,0,.11,1.15s0,0,0,0a5.21,5.21,0,0,0-.59,1.12A5,5,0,0,0,1.38,16a4.49,4.49,0,0,0,1.2,2.17A3.13,3.13,0,0,0,3.9,19a2.88,2.88,0,0,0,1.62,0h0c.17.09.32.2.49.3a10.84,10.84,0,0,0,.09,1.27,8.92,8.92,0,0,1,0,1h0a26.06,26.06,0,0,1-.64,2.78c-.26.91-.51,1.82-.68,2.76a8.86,8.86,0,0,0-.12,2.72,5,5,0,0,0,.37,1.33c.25.8.38,1.62.55,2.44.2,1,.37,2,.54,3s.29,2,.47,2.93.51,1.92.78,2.87A15.59,15.59,0,0,1,8,45.08a2,2,0,0,1-.11,1,1.55,1.55,0,0,1-.71.72,1.81,1.81,0,0,0-.72.14A1.56,1.56,0,0,0,4.7,48.23a1.21,1.21,0,0,0,.6,1,1.39,1.39,0,0,0,1.37.09,1.4,1.4,0,0,0,.76,0l0,0a2,2,0,0,0,.82.21A3,3,0,0,0,10,49.07a.05.05,0,0,0,.08,0,1.87,1.87,0,0,0,.3-1.25.49.49,0,0,1,.18-.44c.14-.09.32-.12.46-.22.31-.25.16-.65,0-.94a6.14,6.14,0,0,1-.32-.69,2.92,2.92,0,0,1-.15-.65c0-.42.1-.85.16-1.28.1-.77.22-1.54.3-2.31a22.7,22.7,0,0,0,.1-2.33A17.64,17.64,0,0,0,11,37a1.05,1.05,0,0,1,.24-.23,1.73,1.73,0,0,0,.28-.19,7.69,7.69,0,0,0,.76.38h0a15.64,15.64,0,0,0,2.34.47,10.28,10.28,0,0,0,2.71-.22c.42-.09.83-.22,1.25-.32l.06,0h0a1.41,1.41,0,0,1,.22-.06l.4-.2s.05,0,.07,0a4.37,4.37,0,0,1,.5.93c.14.31.29.63.4.95s.21.65.3,1a1.75,1.75,0,0,1,.12.32,3.83,3.83,0,0,1,.26.81c.1.38.2.76.28,1.15.05.24.1.49.14.74h0a2.43,2.43,0,0,1,.08.53v0a10.59,10.59,0,0,1,0,1.95,6,6,0,0,1-.12.85,2.09,2.09,0,0,1-.25.74,2,2,0,0,1-.46.42,1.79,1.79,0,0,0-.58.64,2.69,2.69,0,0,0-.16.45,1.34,1.34,0,0,0,0,.2c0,.74.87,1.66,1.63,1.19l0,0a1.57,1.57,0,0,0,.75.4,1.73,1.73,0,0,0,1.41-.38,2.29,2.29,0,0,0,1.38-.29,1.72,1.72,0,0,0,.51-.46A1.34,1.34,0,0,0,25.89,48Z"/><path class="cls-20" d="M6,33.31c.57.62.93,1.16,1.29,1.31h0a29.84,29.84,0,0,0-2.21-3.84,8,8,0,0,1-.42-.89,5.19,5.19,0,0,0,.37,1.31c.25.8.38,1.62.55,2.44.2,1,.37,2,.54,3,.08.48.15,1,.23,1.43a5.85,5.85,0,0,0-.18-1.61A14.88,14.88,0,0,1,6,34.92C6,34.7,5.77,33,6,33.31Z"/><path class="cls-20" d="M12.29,37a15.64,15.64,0,0,0,2.34.47,10.28,10.28,0,0,0,2.71-.22c.42-.09.83-.22,1.25-.32l.06,0h0a1.41,1.41,0,0,1,.22-.06l.4-.2s.05,0,.07,0a4.37,4.37,0,0,1,.5.93c.14.31.29.63.4.95s.21.65.3,1a1.75,1.75,0,0,1,.12.32,3.83,3.83,0,0,1,.26.81c.09.35.18.69.26,1h0c0-.1,0-.2,0-.3a15.66,15.66,0,0,0-.82-2.82A18,18,0,0,0,19.14,36a28.56,28.56,0,0,1-2.51-4.09c.15.59.36,1.16.53,1.75,0,0,0,0-.06,0-1.13-1.1-1.54-2.69-2.37-4a12,12,0,0,0,1.89,4.85s0,.07-.05.05c-.35-.27-.74-.47-1.1-.74a2.91,2.91,0,0,1-.82-.89,8,8,0,0,1-.74-2.2l-.12.25a0,0,0,0,1-.06,0,13.1,13.1,0,0,1,.54-2.56c.27-.74.71-1.4,1-2.14a3.34,3.34,0,0,0-.35.4s-.07,0-.06,0a44.42,44.42,0,0,0,2-6.25,22.65,22.65,0,0,0-1.19,3.09A15,15,0,0,1,15,25.08c-.23.51-.5,1-.78,1.5s-.48.85-.69,1.28A6.88,6.88,0,0,0,13,29.24a7,7,0,0,0,.14,3.12c.11.45.26.9.33,1.36,0,.21.19.44,0,.59a1.41,1.41,0,0,1-.73.21c-.29,0-.58,0-.87,0a3.13,3.13,0,0,0,.63.68s0,.06,0,.06A4.53,4.53,0,0,1,11,34.77l.14.19s0,.06,0,0a4.49,4.49,0,0,1-2.55-1.78A8.58,8.58,0,0,1,7.2,29.67a20.05,20.05,0,0,1-.28-2.89c0,.12,0,.24-.08.36a11.09,11.09,0,0,0-.2,1.52A7.47,7.47,0,0,0,7,31.59a14.14,14.14,0,0,0,1.27,2.48A9.58,9.58,0,0,1,9,35.26c0,.08.07.17.1.26v0a4.53,4.53,0,0,1,.21,1v0h0c0,.14,0,.27,0,.41,0,.51.1,1,.17,1.52s.13,1,.16,1.56,0,1,0,1.49a11.81,11.81,0,0,0,.16,2.85,2.49,2.49,0,0,1,.08.94,1.08,1.08,0,0,1-.48.66,1.6,1.6,0,0,0,.45.19c.15,0,.43.13.55,0h0c.08.11.19.28,0,.36a.88.88,0,0,1-.51,0l-.79-.09a1.11,1.11,0,0,0-.8.14,2,2,0,0,0,.49.12c.37,0,1.1.12,1,.66a1.08,1.08,0,0,1-.46.67,3.08,3.08,0,0,1-.83.47,1.3,1.3,0,0,1-.95,0,.56.56,0,0,1-.38-.6,1.17,1.17,0,0,1,.79-.68,2.7,2.7,0,0,1,1.09-.15,2.05,2.05,0,0,0-1.61.05,2.52,2.52,0,0,0-.82.45,1.29,1.29,0,0,0-.27.3,1,1,0,0,0-.12.34c0,.15-.1.36-.3.29a.49.49,0,0,1-.3-.56A1.52,1.52,0,0,1,6,47.14L6.11,47a1,1,0,0,0-.59.73,5.05,5.05,0,0,1-.06.67c0,.09-.07.23-.17.28S5,48.53,4.9,48.4a1.56,1.56,0,0,1-.12-.56,1,1,0,0,0-.08.39,1.21,1.21,0,0,0,.6,1,1.39,1.39,0,0,0,1.37.09,1.4,1.4,0,0,0,.76,0l0,0a2,2,0,0,0,.82.21A3,3,0,0,0,10,49.07a.05.05,0,0,0,.08,0,1.87,1.87,0,0,0,.3-1.25.49.49,0,0,1,.18-.44c.14-.09.32-.12.46-.22.31-.25.16-.65,0-.94a6.14,6.14,0,0,1-.32-.69,2.92,2.92,0,0,1-.15-.65c0-.42.1-.85.16-1.28.1-.77.22-1.54.3-2.31a22.7,22.7,0,0,0,.1-2.33A17.64,17.64,0,0,0,11,37a1.05,1.05,0,0,1,.24-.23,1.73,1.73,0,0,0,.28-.19,7.69,7.69,0,0,0,.76.38Z"/><path class="cls-20" d="M21.61,44.32a8.46,8.46,0,0,0-.28-2.07c0,.1,0,.2.05.3h0a2.43,2.43,0,0,1,.08.52v0a10.59,10.59,0,0,1,0,1.95,6,6,0,0,1-.12.85,2.09,2.09,0,0,1-.25.74,2,2,0,0,1-.46.42,1.79,1.79,0,0,0-.58.64l-.05.12a2.13,2.13,0,0,0,.29-.31,2.22,2.22,0,0,1,.37-.38,4.34,4.34,0,0,1,.49-.35A5.75,5.75,0,0,0,21.61,44.32Z"/><path class="cls-20" d="M25.88,48a1.63,1.63,0,0,0-.09-.46c-.08-.22-.18-.43-.28-.64a1.31,1.31,0,0,0-.89-.36c.19.15.4.28.58.45a1.54,1.54,0,0,1,.35.59,1,1,0,0,1-.29,1.17c-.2.13-.73.37-.74-.06,0-.12,0-.24,0-.37a.71.71,0,0,0-.16-.39,1.47,1.47,0,0,0-.54-.45c.71.78-.25,2-1.16,2.12a1.39,1.39,0,0,1-1.37-.68,1.17,1.17,0,0,1,.15-1.29,1.17,1.17,0,0,0-.39.49.94.94,0,0,0-.06.64c0,.21.12.52-.16.58s-.49-.21-.63-.36l-.24-.3c.21.65.94,1.25,1.58.85l0,0a1.57,1.57,0,0,0,.75.4,1.73,1.73,0,0,0,1.41-.38,2.29,2.29,0,0,0,1.38-.29,1.72,1.72,0,0,0,.51-.46,1.34,1.34,0,0,0,.26-.76S25.89,48,25.88,48Z"/><path class="cls-20" d="M24.65,43.78c0-.73,0-1.45.06-2.17,0-.41,0-.82,0-1.22l0-.08c0,.28,0,.56,0,.84,0,.45,0,.91,0,1.37a9.47,9.47,0,0,0-.09,1.3,4.1,4.1,0,0,0,.23.9.22.22,0,0,1,0-.08A3.54,3.54,0,0,1,24.65,43.78Z"/><path class="cls-20" d="M23.28,30.77a.06.06,0,0,1,0-.06.39.39,0,0,1-.08-.1c0-.05,0-.15,0-.2s.05-.24.07-.37,0-.25.05-.38c0-.39-.07-.79-.11-1.18a1.72,1.72,0,0,0-.07-.21,10.51,10.51,0,0,1,0,2.31A1.27,1.27,0,0,1,23.28,30.77Z"/><path class="cls-20" d="M23.75,32c-.05-.19-.09-.38-.14-.58a2.14,2.14,0,0,0-.1-.22l0,0a4.57,4.57,0,0,1,.19.63c.12.51.2,1,.27,1.54l.09.7A14,14,0,0,0,23.75,32Z"/><path class="cls-20" d="M5.53,19c.17.09.32.2.49.3,0,.25,0,.5,0,.76a.07.07,0,0,1,0,.06v.28c0,.06,0,.12,0,.17a8.92,8.92,0,0,1,0,1h0c-.1.59-.22,1.17-.37,1.75a6.77,6.77,0,0,0,.13,2.5A2.29,2.29,0,0,1,6,25.08a.08.08,0,0,1,.13,0c.16-1.68.54-3.33.63-5A.09.09,0,0,1,7,20a3,3,0,0,1,.16,1.61A5.64,5.64,0,0,0,7.69,24,7.46,7.46,0,0,0,9,26a3.63,3.63,0,0,0,1.15,1,8.46,8.46,0,0,1-2.41-6.35.09.09,0,0,1,.15-.06c.31.29.55.7,1,.84a3.11,3.11,0,0,0-.22-.4c0-.07,0-.17.11-.12,1.33,1,3.31,1.73,4.87.84a.08.08,0,0,1,.1.13,2.36,2.36,0,0,0-.51.63,2.53,2.53,0,0,0,.81-.39c.06,0,.16,0,.13.1-.1.25-.25.48-.36.73a10.79,10.79,0,0,0,2.93-4.4c.38-.88.77-1.77,1.11-2.67A6.85,6.85,0,0,0,18.35,13l-.28.2a7.88,7.88,0,0,1-.8,3.27,5.09,5.09,0,0,1-1.12,2.1,3,3,0,0,1-1.43,1.56,3.05,3.05,0,0,1-1.78.29A2.47,2.47,0,0,1,12,20c-.35-.25-.57-.46-1-.37a5.57,5.57,0,0,1-2.34-.44A3.67,3.67,0,0,0,7,19.27a1.55,1.55,0,0,1-1-.08A2,2,0,0,0,5.58,19a1.69,1.69,0,0,0-.67.05,2.74,2.74,0,0,1-.69.1A3.2,3.2,0,0,0,5.52,19Z"/><path class="cls-20" d="M21.16,18.67h0c0-.15,0-.31-.05-.46s-.11-.56-.14-.84v0c0,.51,0,1,.05,1.54a28.35,28.35,0,0,1,0,3.57,4.93,4.93,0,0,0,.26-.93c-.1-.93-.08-1.89-.11-2.84Z"/><g class="cls-27"><path class="cls-28" d="M19.61,12a13.63,13.63,0,0,0-1.15-3.06A9.11,9.11,0,0,0,13.32,4.4a13,13,0,0,0-4.49-.73,8.54,8.54,0,0,0-4.2.87c-2.2,1.29-2.82,4-3,6.42l.2-.22a5.49,5.49,0,0,0,.49-.67,6.91,6.91,0,0,0-.11.9,3,3,0,0,0,.11,1.15s0,0,0,0a5.21,5.21,0,0,0-.59,1.12A5,5,0,0,0,1.38,16a4.49,4.49,0,0,0,1.2,2.17A3.13,3.13,0,0,0,3.9,19a2.88,2.88,0,0,0,1.62,0h0c.17.09.32.2.49.3v0l.15.06a1.54,1.54,0,0,0,.9,0,3.19,3.19,0,0,1,1.36-.25,5.11,5.11,0,0,1,1.35.45,1.79,1.79,0,0,0,1.49.21s0,0,.08,0a3.16,3.16,0,0,1,.58.44,2.09,2.09,0,0,0,1,.41,2.82,2.82,0,0,0,2-.33,3.88,3.88,0,0,0,1.39-1.37c.16-.28.3-.57.45-.85l.14-.25a.06.06,0,0,1,0-.06,10.94,10.94,0,0,0,.66-1.79c.17-.59.42-1.16.56-1.77.07-.32.09-.64.13-1a.57.57,0,0,1,.25-.34c.17-.15.39-.24.57-.38s.23-.26.36-.33Z"/></g><path class="cls-29" d="M7.39,1.56a3.83,3.83,0,0,0-.67.6,0,0,0,1,1,0,0,5,5,0,0,1,.68-.78l.14-.16c0-.07,0-.15,0-.21A1.29,1.29,0,0,0,7.13.61a0,0,0,0,1,0,0,.64.64,0,0,1,.59.29l0-.13A1.23,1.23,0,0,0,7.29.18C6.71-.21,5.9.12,5.37.41a6.91,6.91,0,0,0-1.5,1.14,1.25,1.25,0,0,1-.66-.06,3.22,3.22,0,0,0-.86-.18A2,2,0,0,0,.76,2.2a3.4,3.4,0,0,0-.43,1A10,10,0,0,0,.07,4.61a11.89,11.89,0,0,0,0,2.92q.06.48.15,1c.06.34.15.68.19,1a3.76,3.76,0,0,1-.14,1.29c-.07.28-.32.74,0,.92.14.08.3,0,.42-.08a4.32,4.32,0,0,0,1-.91,7,7,0,0,0,.47-.64,7.76,7.76,0,0,0,.55-1.26C3,8.11,3,7.34,3.15,6.6a3.55,3.55,0,0,1,.91-1.81A13.69,13.69,0,0,0,5.52,3.2l0,0a.06.06,0,0,1,.06-.06c.36,0,1-.71,1.53-1.12A3.91,3.91,0,0,0,7.39,1.56Z"/><g class="cls-30"><path class="cls-31" d="M7.39,1.56a3.83,3.83,0,0,0-.67.6,0,0,0,1,1,0,0,5,5,0,0,1,.68-.78l.14-.16c0-.07,0-.15,0-.21A1.29,1.29,0,0,0,7.13.61a0,0,0,0,1,0,0,.64.64,0,0,1,.59.29l0-.13A1.23,1.23,0,0,0,7.29.18C6.71-.21,5.9.12,5.37.41a6.91,6.91,0,0,0-1.5,1.14,1.25,1.25,0,0,1-.66-.06,3.22,3.22,0,0,0-.86-.18A2,2,0,0,0,.76,2.2a3.4,3.4,0,0,0-.43,1A10,10,0,0,0,.07,4.61a11.89,11.89,0,0,0,0,2.92q.06.48.15,1c.06.34.15.68.19,1a3.76,3.76,0,0,1-.14,1.29c-.07.28-.32.74,0,.92.14.08.3,0,.42-.08a4.32,4.32,0,0,0,1-.91,7,7,0,0,0,.47-.64,7.76,7.76,0,0,0,.55-1.26C3,8.11,3,7.34,3.15,6.6a3.55,3.55,0,0,1,.91-1.81A13.69,13.69,0,0,0,5.52,3.2l0,0a.06.06,0,0,1,.06-.06c.36,0,1-.71,1.53-1.12A3.91,3.91,0,0,0,7.39,1.56Z"/></g><path class="cls-32" d="M.46,9.52a3.35,3.35,0,0,1-.07,1,.41.41,0,0,1,0,.11,1,1,0,0,0,0,.3c0,.12.18.08.25,0a1.82,1.82,0,0,0,.43-.56,4.07,4.07,0,0,0,.38-.82c.43-1.32.21-2.74.59-4.08a4.33,4.33,0,0,1,1.14-2,22.26,22.26,0,0,0,2-1.77A5.46,5.46,0,0,1,6.86.21,1.59,1.59,0,0,1,7.13.09,2.17,2.17,0,0,0,5.37.41L5.22.5A20.39,20.39,0,0,0,3.71,2.07,4.7,4.7,0,0,1,2.29,3.15c-.27.12-1,.45-1.21,0s.16-.85.37-1.13a1.86,1.86,0,0,1,.7-.54,2,2,0,0,1,.59-.13,1.74,1.74,0,0,0-.39-.05A2,2,0,0,0,.76,2.2a3.4,3.4,0,0,0-.43,1A10,10,0,0,0,.07,4.61a11.89,11.89,0,0,0,0,2.92q.06.48.15,1C.33,8.83.42,9.17.46,9.52Z"/><path class="cls-33" d="M12.44,10.58a8,8,0,0,1,3.42,2.59A8.71,8.71,0,0,0,15,12.08c-.22-.27-.49-.48-.72-.74-.39-.45-.72-.74-.21-.91a2.54,2.54,0,0,1,1.62.12.89.89,0,0,0-.3-.24.48.48,0,0,1-.33-.37,1.8,1.8,0,0,1,.15-.75,3.6,3.6,0,0,0,.12-1.13c0-.55-.25-1.25,0-1.78A.67.67,0,0,1,15.76,6c.07,0,.2,0,.32-.07a.54.54,0,0,0,.12-.34,3.83,3.83,0,0,0-1.51-2.28c-1.95-.7-3.06,1.06-3.38,2.31-1.05,4.17.07,1.37,0,1.94-.06.41-.05,1-.4,1.25-.17.14-.29,0-.62-.3A1.92,1.92,0,0,0,9.2,8.16c-.26,0-.91.25-.92,0a4.4,4.4,0,0,1,.29-1c.09-.35.28,2,.62-1,.18-1.59-.08-4.11-1.56-3.94-.47,0-.89.12-1.61,1.29A4.81,4.81,0,0,1,5,4.65a2.38,2.38,0,0,1-.73.46c.13.08.22.19.08.34s-.27.21-.39.34.49.07.53.07c.36,0,.12.62,0,.8a1.53,1.53,0,0,0-.07,1.27c.06.12.19.22-.18.22a1.25,1.25,0,0,0-.72.14,2.91,2.91,0,0,1,2.13,1s0,.06,0,.11C7.9,8.14,11,8.17,12.44,10.58Z"/><path class="cls-34" d="M8.53,4.72a6.74,6.74,0,0,0-.26-1,1.69,1.69,0,0,0-.63-.87.84.84,0,0,0-.75.06A4.16,4.16,0,0,0,6,3.78a7.66,7.66,0,0,1-.88.92A1.72,1.72,0,0,1,4.57,5c.7-.08,1.22-.7,1.79-1.13.32-.33.73-.64,1.16-.32a2.57,2.57,0,0,1,.66,1.35s0,.05-.06,0c-.13-.18-.23-.37-.36-.55S7.38,3.92,7.1,4a1.58,1.58,0,0,0-.39.29l-.26.21a3.33,3.33,0,0,1-.65.55,6.2,6.2,0,0,1-1.28.66c.18,0,.31.12.27.35s-.26.52-.27.85a7.35,7.35,0,0,0,.13,1.16.09.09,0,0,1-.07.1l-.73.16a2.5,2.5,0,0,1,1.35.35,1.84,1.84,0,0,1,.6.61,6.75,6.75,0,0,1,1.61-.58A3.8,3.8,0,0,0,7.91,8a2.6,2.6,0,0,0,.37-1,4.19,4.19,0,0,0,0-1.4,2,2,0,0,1,.23.49,3.48,3.48,0,0,1,.12.73,5,5,0,0,0,.06-.94C8.66,5.49,8.58,5.11,8.53,4.72Z"/><path class="cls-35" d="M9,3.57a1.85,1.85,0,0,0-.84-1,1.88,1.88,0,0,1,.45.94l.15.54q.07.34.12.69A6.08,6.08,0,0,1,9,6,9,9,0,0,1,9,7.31c.05-.24.1-.6.16-1.12A7.5,7.5,0,0,0,9,3.57Z"/><path class="cls-36" d="M12.44,4.29a3,3,0,0,1,1-.74,2.4,2.4,0,0,1,1.47-.18.62.62,0,0,0-.17-.1,2.83,2.83,0,0,0-.82-.16,3.86,3.86,0,0,0-2.5,2.66,9.73,9.73,0,0,0-.24,1.07,4.88,4.88,0,0,1,.31-1,5.36,5.36,0,0,1,.48-.92A7.79,7.79,0,0,1,12.44,4.29Z"/><path class="cls-37" d="M14.89,4c-1.13-.6-2.23.38-2.72,1.34a10.94,10.94,0,0,0-.66,1.79A3.84,3.84,0,0,0,11.31,9c0,.06,0,.14-.1.13L10.76,9a4,4,0,0,1,1.68,1.55,5.78,5.78,0,0,1,1.86,1,1.65,1.65,0,0,0-.51-.51c-.19-.1-.56-.21-.47-.5s.5-.33.74-.37l.41,0c.13,0,.62,0,.71,0a1.05,1.05,0,0,0-.49-.28.1.1,0,0,1,0-.17,3.06,3.06,0,0,0,.58-2.68c-.12-.73-.42-1.69-1.22-1.9-.16,0-.64,0-.68-.22s.39-.43.56-.48a1.62,1.62,0,0,1,.9,0c.63.2,1,.77,1.3,1.3v0A2.63,2.63,0,0,0,14.89,4Z"/><g class="cls-38"><path class="cls-39" d="M17.45,16.38l0,0c-.33.32-.53,1.37-.56-.36A5.69,5.69,0,0,0,16,13.32c0-.06-.06-.1-.09-.15a8,8,0,0,0-3.42-2.59C11,8.17,7.9,8.14,5.62,9.39a6.61,6.61,0,0,1-1.08.73,8.18,8.18,0,0,0-2.16,1.76s-.16-.18-.2-.2a2.16,2.16,0,0,0,.1.44s0,0,0,0a5.21,5.21,0,0,0-.59,1.12A5,5,0,0,0,1.38,16a4.49,4.49,0,0,0,1.2,2.17A3.13,3.13,0,0,0,3.9,19a2.88,2.88,0,0,0,1.62,0h0c.17.09.32.2.49.3v0a.93.93,0,0,0,.47.11,4.41,4.41,0,0,0,.82-.16,2.79,2.79,0,0,1,1.25-.05c.51.11,1,.37,1.47.51a1.8,1.8,0,0,0,1.31,0c.05,0,.09,0,.09,0a3.36,3.36,0,0,0,2.05.85,3.1,3.1,0,0,0,1.92-.74,6.42,6.42,0,0,0,1.3-1.79,7.48,7.48,0,0,0,.75-1.72Z"/></g><path class="cls-40" d="M10.83,12.94a1.83,1.83,0,0,0-.62-.93,3.08,3.08,0,0,0-1.9-.63,4.09,4.09,0,0,0-1.83.27,1.81,1.81,0,0,0-.42.28,1.45,1.45,0,0,0-.41.72,1.1,1.1,0,0,0,.23.82,2.67,2.67,0,0,0,.92.75,1,1,0,0,0,.32.12.7.7,0,0,0,.25,0,1,1,0,0,0,.23-.12l.16-.09,0,.06a.72.72,0,0,0,.3.26,1,1,0,0,0,.44.09,4.33,4.33,0,0,0,1.36-.39,4.73,4.73,0,0,0,.47-.2.74.74,0,0,0,.23-.2A1,1,0,0,0,10.83,12.94Z"/><path class="cls-41" d="M17.45,16.38l0,0c-.33.32-.53,1.37-.56-.36A5.69,5.69,0,0,0,16,13.32a5.66,5.66,0,0,0-.31-.48,9.75,9.75,0,0,0-1.36-1.29,5.14,5.14,0,0,0-1.83-1.11.06.06,0,0,1,0-.08A5.35,5.35,0,0,0,8.67,8.47a5.34,5.34,0,0,0-2.4.64c-.28.13-.56.28-.83.44a8.89,8.89,0,0,1-.9.57,8.18,8.18,0,0,0-2.16,1.76s-.16-.18-.2-.2a2.16,2.16,0,0,0,.1.44s0,0,0,0a5.21,5.21,0,0,0-.59,1.12A5,5,0,0,0,1.38,16a4.49,4.49,0,0,0,1.2,2.17A3.13,3.13,0,0,0,3.9,19a2.88,2.88,0,0,0,1.62,0h0c.17.09.32.2.49.3v0a.93.93,0,0,0,.47.11,4.41,4.41,0,0,0,.82-.16,2.79,2.79,0,0,1,1.25-.05c.51.11,1,.37,1.47.51a1.8,1.8,0,0,0,1.31,0c.05,0,.09,0,.09,0a3.36,3.36,0,0,0,2.05.85,3.1,3.1,0,0,0,1.92-.74,6.42,6.42,0,0,0,1.3-1.79,7.48,7.48,0,0,0,.75-1.72ZM6.2,11.9a3.32,3.32,0,0,1,1-.39,3.47,3.47,0,0,1,2.09.13c.26.11,1.48.78,1.06,1.21a.72.72,0,0,1-.76.07.92.92,0,0,0-.76.06L8.69,13a1.13,1.13,0,0,1-.91.17c-.42-.1-.85-.7-1.29-.59-.14,0-.54.25-.64.05S5.89,12.1,6.2,11.9ZM4.89,16.78a2.16,2.16,0,0,1-2.13-1.17c-.37-1,.55-1.69.93-2.61.26-.64,0-1.68.53-2.18.11-.12,1.45-1.23,1.42-.67.12.33-.44.58-.49.89A.75.75,0,0,1,5.48,11s.08,0,.06.08-.42.65,0,.62a.17.17,0,0,1,.15.26,1.84,1.84,0,0,0,0,1.65,1.54,1.54,0,0,0,1.55.89.06.06,0,0,1,.08.06,1.63,1.63,0,0,1-.16.88A2.61,2.61,0,0,1,4.89,16.78Zm4.48,1.45A6,6,0,0,0,8,18a10.8,10.8,0,0,0-1.6.14c-.16,0,.05-.13.2-.19a3.32,3.32,0,0,1,2-.18,11.43,11.43,0,0,1,1.11.38C9.85,18.25,9.81,18.33,9.37,18.23Zm4.44.1a2.41,2.41,0,0,1-2.08,0,5.22,5.22,0,0,1-.82-.67,5.53,5.53,0,0,0-1-.68l-1.06-.59a2.83,2.83,0,0,1-.71-.47.92.92,0,0,1,0-1.36l0,0a.06.06,0,0,1,.08,0A2.4,2.4,0,0,0,11,14.35a1.09,1.09,0,0,0,.32-.8,1,1,0,0,1,0-.42c.07-.2.23-.19.39-.1.54.32.16-.39.36-.54s.37,0,.57.13.72.24.92,0,.11-.35.16-.55.22-.21.41-.18a0,0,0,0,1,0,0c.49.45.56.64.52,1.59a3.5,3.5,0,0,0,.25,2A2,2,0,0,1,13.81,18.33Z"/><path class="cls-42" d="M8.52,17.4a3.42,3.42,0,0,1,1,.32,2.11,2.11,0,0,1,.58.45,7.59,7.59,0,0,1-.82-.37,3.92,3.92,0,0,0-1.06-.26,3.75,3.75,0,0,0-1.95.27,1.63,1.63,0,0,1,.82-.43A3.48,3.48,0,0,1,8.52,17.4Z"/><path class="cls-43" d="M2.28,11.8a.76.76,0,0,0-.1-.12l0,.19Z"/><path class="cls-44" d="M17,17a6.18,6.18,0,0,1-.07.62,5.74,5.74,0,0,0,.49-1.23h0l0,0C17.26,16.56,17.13,16.9,17,17Z"/><path class="cls-45" d="M16.8,15.87a6.68,6.68,0,0,0-.2-1.2,9.67,9.67,0,0,0-.5-1.09c-.06-.07-.11-.14-.18-.21a5.21,5.21,0,0,1,.29,3.68,3.59,3.59,0,0,1-2.77,2.57,2.33,2.33,0,0,1-1.91-.86c-.46-.52-.83-1.25-1.47-1.6s-1.26,0-1.76-.36S7.8,15.75,7.84,15c0-.16.06-.35.24-.34h.63a3.23,3.23,0,0,0,1.86-.54c.32-.2.65-.49.52-.92a1.9,1.9,0,0,0-.4-.67c.13.54.19,1.22-.37,1.39a.69.69,0,0,1-.85-.39c-.11-.3.24-.26.48-.2-.33-.21-.85-.5-.74.1,0,.26,0,.49-.22.61a1,1,0,0,1-.86,0c-.28-.17-.24-.47-.27-.76-.15.37-.36.72-.76.58s-.27-.32-.18-.56.18-.48-.16-.39h0a.11.11,0,0,1,.07.16c-.12.25-.45.63-.77.45a.88.88,0,0,1-.36-.79,1.08,1.08,0,0,0,0,.75,2.77,2.77,0,0,0,.28.54,1.27,1.27,0,0,0,.87.44c.15,0,.37-.11.5,0s.07.61,0,.79,0,.5,0,.75a1,1,0,0,1-.13.64c-.3.32-.81.12-1.17.32s-.71.78-1.24.93a1.92,1.92,0,0,1-1.45-.28,3.46,3.46,0,0,1-1.68-3,5,5,0,0,1,.32-1.92c0-.1.09-.2.14-.3l-.31.41a4.43,4.43,0,0,0-.2.45A5,5,0,0,0,1.38,16a4.49,4.49,0,0,0,1.2,2.17A3.13,3.13,0,0,0,3.9,19a2.88,2.88,0,0,0,1.62,0h0c.17.09.32.2.49.3v0a.93.93,0,0,0,.47.11,4.41,4.41,0,0,0,.82-.16,2.79,2.79,0,0,1,1.25-.05c.51.11,1,.37,1.47.51a1.8,1.8,0,0,0,1.31,0c.05,0,.09,0,.09,0a3.36,3.36,0,0,0,2.05.85,3.1,3.1,0,0,0,1.92-.74,5.28,5.28,0,0,0,1.11-1.46A5.46,5.46,0,0,0,16.8,15.87ZM9.37,18.23A6,6,0,0,0,8,18a10.8,10.8,0,0,0-1.6.14c-.16,0,.05-.13.2-.19a3.32,3.32,0,0,1,2-.18,11.43,11.43,0,0,1,1.11.38C9.85,18.25,9.81,18.33,9.37,18.23Z"/><path class="cls-29" d="M22.12,6.46a9.6,9.6,0,0,0-.28-1.77,2.22,2.22,0,0,0-1-1.33A2.91,2.91,0,0,0,20,3.11a3.47,3.47,0,0,1-1-.34,1.76,1.76,0,0,1-.34-.25c-.15-.26-.28-.53-.45-.78a1.23,1.23,0,0,0-1.33-.62A2.61,2.61,0,0,0,15.44,2l0,0,0,.07a4,4,0,0,1,1,.78,5.14,5.14,0,0,1,.8,1.11,2.78,2.78,0,0,1,.16.76c.05.26.1.53.13.79.08.57.08,1.14.11,1.71a.05.05,0,0,1,0,0A8.82,8.82,0,0,1,17.26,9c-.13.65-.33,1.3-.44,2a8.55,8.55,0,0,0-.13,2c0,.32.13,1.59.71,1.49a.06.06,0,0,1,.07,0c.25,0,.35-.5.42-.68a3.22,3.22,0,0,1,.29-.55s0,0,0,0l.1-.14a4.25,4.25,0,0,1,1.08-.91h0a4.13,4.13,0,0,0,1.22-1.55c.18-.41.34-.84.51-1.26a18,18,0,0,0,.95-1.85A2.9,2.9,0,0,0,22.12,6.46Z"/><g class="cls-46"><path class="cls-47" d="M22.12,6.46a9.6,9.6,0,0,0-.28-1.77,2.22,2.22,0,0,0-1-1.33A2.91,2.91,0,0,0,20,3.11a3.47,3.47,0,0,1-1-.34,1.76,1.76,0,0,1-.34-.25c-.15-.26-.28-.53-.45-.78a1.23,1.23,0,0,0-1.33-.62A2.61,2.61,0,0,0,15.44,2l0,0,0,.07a4,4,0,0,1,1,.78,5.14,5.14,0,0,1,.8,1.11,2.78,2.78,0,0,1,.16.76c.05.26.1.53.13.79.08.57.08,1.14.11,1.71a.05.05,0,0,1,0,0A8.82,8.82,0,0,1,17.26,9c-.13.65-.33,1.3-.44,2a8.55,8.55,0,0,0-.13,2c0,.32.13,1.59.71,1.49a.06.06,0,0,1,.07,0c.25,0,.35-.5.42-.68a3.22,3.22,0,0,1,.29-.55s0,0,0,0l.1-.14a4.25,4.25,0,0,1,1.08-.91h0a4.13,4.13,0,0,0,1.22-1.55c.18-.41.34-.84.51-1.26a18,18,0,0,0,.95-1.85A2.9,2.9,0,0,0,22.12,6.46Z"/></g><path class="cls-32" d="M22.12,6.46a9.6,9.6,0,0,0-.28-1.77,2.22,2.22,0,0,0-1-1.33A3.15,3.15,0,0,0,20,3.11a2.22,2.22,0,0,1,.28.33,2.77,2.77,0,0,1,.65,1.47c0,.24,0,.87-.43.64a2.85,2.85,0,0,1-.86-1c-.33-.5-.67-1-1-1.54-.2-.38-.35-.77-.53-1.16a2,2,0,0,0-.22-.41,1.18,1.18,0,0,0-1.1-.33,1.82,1.82,0,0,0-.51.18c.67.1,1.14,1,1.39,1.54a13.06,13.06,0,0,1,.89,3.42,9.39,9.39,0,0,1,0,2.75,5.75,5.75,0,0,1-.37,1.35c-.17.44-.37.86-.54,1.3A5,5,0,0,0,17.32,13a2.47,2.47,0,0,0,0,.72c0,.13.09.31.22.38a.28.28,0,0,0,.2,0c.05-.12.09-.25.12-.33a3.22,3.22,0,0,1,.29-.55s0,0,0,0l.1-.14a4.25,4.25,0,0,1,1.08-.91h0a4.13,4.13,0,0,0,1.22-1.55c.18-.41.34-.84.51-1.26a18,18,0,0,0,.95-1.85A2.9,2.9,0,0,0,22.12,6.46Z"/><path class="cls-48" d="M14.32,10.2a2.65,2.65,0,0,0,.89-1.58c.23-1.23-.55-3.58-2.14-3.2-.67.16-1.06.88-1.3,1.49-.46,1.21-.68,2.79.67,3.52a1.36,1.36,0,0,0,.68.18A2.57,2.57,0,0,1,14.32,10.2Z"/><path class="cls-49" d="M14.48,8.37c0,.87-.63,2-1.57,1.89a1.53,1.53,0,0,1-1.28-1.7c.06-.8.52-1.94,1.36-2.09S14.48,7.56,14.48,8.37Z"/><path class="cls-50" d="M13.84,8.38a1,1,0,0,1-.9,1.14.92.92,0,0,1-.79-1c0-.59.37-1.16.83-1.22S13.85,7.72,13.84,8.38Z"/><g class="cls-51"><path class="cls-52" d="M14.48,8.37c0-.81-.55-2.07-1.49-1.9s-1.3,1.29-1.36,2.09a1.53,1.53,0,0,0,1.28,1.7C13.85,10.32,14.48,9.24,14.48,8.37Zm-2.3,1.38c-.61-.6-.33-1.79-.24-1a1,1,0,0,0,1.37.89A1.52,1.52,0,0,0,14,8c-.08-.35.12-.25.12-.25s.34.32,0,1.32A1.22,1.22,0,0,1,12.18,9.75Z"/></g><g class="cls-53"><path class="cls-54" d="M13.93,7.63a.74.74,0,0,0-.6-.89c-.33-.08-.94.21-.67.68S13.79,8.44,13.93,7.63Z"/></g><path class="cls-55" d="M13.86,7.43a.56.56,0,0,0-.46-.67c-.25-.06-.71.15-.5.51S13.75,8.07,13.86,7.43Z"/><path class="cls-56" d="M13.32,10.49a1.58,1.58,0,0,1-.8-.14,1.91,1.91,0,0,1-1-1.61,4.26,4.26,0,0,1,.94-2.81c.89-1.06,2.18.07,2.51,1a3.07,3.07,0,0,1-.32,2.81,1.87,1.87,0,0,1-.54.47l.24,0a2.65,2.65,0,0,0,.89-1.58c.23-1.23-.55-3.58-2.14-3.2-.67.16-1.06.88-1.3,1.49-.46,1.21-.68,2.79.67,3.52a1.36,1.36,0,0,0,.68.18Z"/><path class="cls-57" d="M11.62,8S12,6.33,13.11,6.26c.9,0,1.38.8,1.47,2a1.89,1.89,0,0,1-.46,1.66,1.9,1.9,0,0,0,.81-1.84c-.06-1-.82-2.4-1.74-2.29C12,5.91,11.62,8,11.62,8Z"/><path class="cls-48" d="M7.51,4.82a1.38,1.38,0,0,0-.8-.21,2.24,2.24,0,0,1-1.7,1,3.06,3.06,0,0,0-.36.8,2.42,2.42,0,0,0,.08,1.78,1.53,1.53,0,0,0,.14.21A1.07,1.07,0,0,1,5.65,9,1.45,1.45,0,0,0,6,9.1c1.3.09,2.27-1.42,2.25-2.71A1.84,1.84,0,0,0,7.51,4.82Z"/><path class="cls-58" d="M7.52,8a1.45,1.45,0,0,1-1.95.76,1.62,1.62,0,0,1-.3-2.16A1.44,1.44,0,0,1,7.21,5.8,1.62,1.62,0,0,1,7.52,8Z"/><path class="cls-50" d="M7,7.67a.85.85,0,0,1-1.15.45A1,1,0,0,1,5.7,6.84a.85.85,0,0,1,1.15-.45A1,1,0,0,1,7,7.67Z"/><g class="cls-51"><path class="cls-59" d="M7.52,8A1.62,1.62,0,0,0,7.21,5.8a1.44,1.44,0,0,0-1.94.76,1.62,1.62,0,0,0,.3,2.16A1.45,1.45,0,0,0,7.52,8Zm-2.34,0c-.24-.83.51-1.74.24-1a1,1,0,0,0,.72,1.44,1.28,1.28,0,0,0,1.17-.9c.07-.31.19-.12.19-.12s.11.35-.49,1A1.06,1.06,0,0,1,5.18,7.93Z"/></g><g class="cls-53"><path class="cls-54" d="M7.41,7.18a.71.71,0,0,0-.07-1c-.21-.25-.79-.43-.8.11C6.53,6.68,7,7.68,7.41,7.18Z"/></g><path class="cls-55" d="M7.44,7a.55.55,0,0,0-.05-.74c-.16-.18-.6-.31-.61.09S7.08,7.4,7.44,7Z"/><path class="cls-56" d="M4.87,8.45,5,8.5a1.79,1.79,0,0,1-.43-1,2.9,2.9,0,0,1,.55-1.85H5a3.06,3.06,0,0,0-.36.8,2.42,2.42,0,0,0,.08,1.78A1.53,1.53,0,0,0,4.87,8.45Z"/><path class="cls-56" d="M7.51,4.82a1.38,1.38,0,0,0-.8-.21,1.71,1.71,0,0,0-.11.14,1.26,1.26,0,0,1,1.33.67,2.75,2.75,0,0,1-.29,2.64A1.83,1.83,0,0,1,6,9a1.2,1.2,0,0,1-.42-.12L5.65,9A1.45,1.45,0,0,0,6,9.1c1.3.09,2.27-1.42,2.25-2.71A1.84,1.84,0,0,0,7.51,4.82Z"/><path class="cls-57" d="M7.15,5a1.68,1.68,0,0,0-.74,0,2.34,2.34,0,0,1-1,.65,3,3,0,0,0-.36.56c-.55,1.11-.14,1.68-.14,1.68C4.68,6.27,6.09,5,7.15,5.51s.74,1.87.74,1.87C8.34,6.32,7.84,5.11,7.15,5Z"/><g class="cls-60"><path class="cls-61" d="M9.09,4.54A4.17,4.17,0,0,0,8.43,2.7s0,0,0,0A4.33,4.33,0,0,1,9,4.6c.08.64.05,1.28.1,1.92a0,0,0,1,0,0,0A8.75,8.75,0,0,0,9.09,4.54Z"/><path class="cls-61" d="M10.15,4.35a8.37,8.37,0,0,0-.28-1.3s0,0,0,0c.06.43.2.85.24,1.29A13.52,13.52,0,0,1,10,5.77a0,0,0,0,0,.05,0A6.26,6.26,0,0,0,10.15,4.35Z"/><path class="cls-61" d="M11.62,3.58A5.58,5.58,0,0,0,11,5.73s0,0,0,0c.08-.35.14-.7.23-1a7.86,7.86,0,0,1,.4-1.09S11.63,3.56,11.62,3.58Z"/><path class="cls-61" d="M13.5,3.25c-1.37.31-2,1.71-2.2,3,0,0,0,0,0,0A6.11,6.11,0,0,1,12,4.47,2.93,2.93,0,0,1,13.51,3.3S13.53,3.25,13.5,3.25Z"/><path class="cls-61" d="M15.86,5.25a1.71,1.71,0,0,0-2.23-1.17,3.5,3.5,0,0,0-1.72,2.08l-.12.22a5.61,5.61,0,0,1,1.57-2,1.88,1.88,0,0,1,1.31-.21c.53.16,1,.89,1.29,1.31A1.5,1.5,0,0,0,15.86,5.25Z"/><path class="cls-61" d="M11.41,12.21a5,5,0,0,0-1.32-1.1,4.53,4.53,0,0,0-1.57-.39,5.35,5.35,0,0,0-3.18.72s0,0,0,0a6.16,6.16,0,0,1,3.07-.64,4.72,4.72,0,0,1,1.57.36,3.22,3.22,0,0,1,.69.41c.26.19.47.42.71.63A0,0,0,1,0,11.41,12.21Z"/><path class="cls-61" d="M11.81,11.6A4.5,4.5,0,0,0,8.58,9.94a5.57,5.57,0,0,0-3.4,1s0,0,0,0A6,6,0,0,1,8.53,10a4.52,4.52,0,0,1,1.69.42,6,6,0,0,1,1.57,1.16S11.82,11.61,11.81,11.6Z"/><path class="cls-61" d="M9.5,18.62a1.69,1.69,0,0,0-.61-.24,4.58,4.58,0,0,0-.83,0c-.22,0-.43,0-.64.07a1.29,1.29,0,0,1-.73,0s0,0,0,0a1.93,1.93,0,0,0,1.17.08l.32,0a0,0,0,0,0,0,0,2.78,2.78,0,0,1,.93.28s0,0,0,0a1.47,1.47,0,0,0-.65-.29h.19a3.24,3.24,0,0,1,.8.2S9.52,18.64,9.5,18.62Z"/><path class="cls-62" d="M10.36,27.12A6.93,6.93,0,0,1,9,25.72,9.47,9.47,0,0,1,8,24a7.4,7.4,0,0,1-.56-3.86,0,0,0,0,0,0,0A6.81,6.81,0,0,0,7.87,24a9.27,9.27,0,0,0,1,1.78,5,5,0,0,0,1.44,1.35S10.38,27.14,10.36,27.12Z"/><path class="cls-62" d="M15.27,24.17c.07-.24.13-.49.18-.74h0a27.79,27.79,0,0,1-1.77,4.39A8.56,8.56,0,0,0,13.06,30a7.07,7.07,0,0,0,.21,2.55,8.89,8.89,0,0,0,.37,1.1s0,0,0,0a9.09,9.09,0,0,1-.55-2.77,7,7,0,0,1,.38-2.35C14,27.05,14.83,25.69,15.27,24.17Z"/><path class="cls-61" d="M25.89,48s0,0,0,0a1.63,1.63,0,0,0-.09-.46c-.13-.37-.33-.72-.49-1.08a7.2,7.2,0,0,1-.49-1.37c0-.15,0-.31-.07-.46a2.8,2.8,0,0,1-.08-.58c0-.08,0-.15-.05-.23s0-.28,0-.43c0-.6,0-1.19.06-1.79s0-1.35-.05-2c0-.24,0-.47-.07-.71-.05-.52-.12-1-.19-1.56L24.34,37q-.11-.66-.18-1.32c-.11-.76-.17-1.52-.24-2.28a7.72,7.72,0,0,0-.47-2.22l-.13-.23a.37.37,0,0,1,0-.14c0-.06-.07-.12-.11-.17,0-.2,0-.4.07-.6a8.79,8.79,0,0,0-.1-2.11,16.39,16.39,0,0,0-.45-2.08c-.08-.28-.17-.54-.27-.81s-.2-.47-.3-.71c.16.47.31.95.44,1.43A18.54,18.54,0,0,1,23,27.81a10.12,10.12,0,0,1,.12,2.13c-.05.73-.22,1.45-.3,2.18a0,0,0,0,0,.06,0c.1-.48.19-1,.26-1.46a6.5,6.5,0,0,1,.61,2.2c.1.81.13,1.64.23,2.45a48.3,48.3,0,0,1,.64,6c0,1.21-.14,2.4-.18,3.61,0,0,0,0,0,0l.09-.86c0,.29.06.59.1.89a5,5,0,0,0,.4,1.3c.1.25.21.49.33.74a1.51,1.51,0,0,0-.91-.48s0,0,0,0a1.77,1.77,0,0,1,1.13.93,1.37,1.37,0,0,1-.57,1.7,2.76,2.76,0,0,1-1.26.31l.08-.07a1.39,1.39,0,0,0,.29-1.64,1.54,1.54,0,0,0-.72-.51s0,0,0,0a1.69,1.69,0,0,1,.7.65,1.2,1.2,0,0,1,0,1,1.65,1.65,0,0,1-1.38.94,1.44,1.44,0,0,1-1.5-1.11c-.2-.8.55-1.33,1.11-1.73,0,0,0,0,0,0-.6.33-1.24.78-1.24,1.54a1.38,1.38,0,0,0,.41.94.77.77,0,0,1-.71,0,1.24,1.24,0,0,1-.44-.35,1.18,1.18,0,0,1-.3-.93,1.08,1.08,0,0,1,.18-.5l0,0a0,0,0,0,0,0-.06,14.42,14.42,0,0,1,1.33-1.15s0,0,0,0l-.28.18.05,0a6.52,6.52,0,0,0,.32-2.28,14.43,14.43,0,0,0-.37-2.53,19.49,19.49,0,0,0-1.92-5.34c-.2-.38-.42-.75-.65-1.12a0,0,0,0,0,0,0l-.05,0c-.62-1-1.29-1.94-1.84-3,0,0,0,0,0,0a26,26,0,0,0,1.42,2.45l.2.31c-.42-.31-.88-.57-1.27-.91a6.66,6.66,0,0,1-1.1-1.33,12,12,0,0,1-1.36-3.19s0,0,0,0A10.51,10.51,0,0,0,16,32.84a6.5,6.5,0,0,0,1.08,1.32,11.17,11.17,0,0,0,1.49,1.06c.32.51.62,1,.9,1.57a4.78,4.78,0,0,1,.42.81c.14.31.29.63.4.95a6.86,6.86,0,0,1,.24.77c0,.1.07.21.11.31l.07.22a3.83,3.83,0,0,1,.26.81c.1.38.2.76.28,1.15.05.24.1.49.14.74h0a2.43,2.43,0,0,1,.08.52v0c0,.27.05.55.06.82,0,.1,0,.2,0,.3h0v.11h0c0,.19,0,.38,0,.57a6.4,6.4,0,0,1-.36,1.79,6.49,6.49,0,0,0-.83.66,1.37,1.37,0,0,0-.16.18l-.1.17a2.69,2.69,0,0,0-.16.45,1.34,1.34,0,0,0,0,.2c0,.74.87,1.66,1.63,1.19l0,0a1.57,1.57,0,0,0,.75.4,1.73,1.73,0,0,0,1.41-.38,2.29,2.29,0,0,0,1.38-.29,1.72,1.72,0,0,0,.51-.46A1.34,1.34,0,0,0,25.89,48Z"/><path class="cls-61" d="M20.62,10.63c.18-.42.33-.85.5-1.27a16.14,16.14,0,0,0,.95-1.85,2.86,2.86,0,0,0,.05-1,9.72,9.72,0,0,0-.29-1.78,2.13,2.13,0,0,0-1-1.32,2.92,2.92,0,0,0-.93-.26,3.44,3.44,0,0,1-1-.33,1.76,1.76,0,0,1-.34-.25c-.15-.26-.28-.53-.45-.78a1.25,1.25,0,0,0-1.34-.62A2.64,2.64,0,0,0,15.43,2a3.88,3.88,0,0,0-.7-.3,2.81,2.81,0,0,0-1.6,0A6.61,6.61,0,0,0,12.2,2h0a5.51,5.51,0,0,1-1.38-.31c-.15-.05-.28-.15-.42-.21l-.16-.07-.07-.06A3.64,3.64,0,0,0,9.37.84,2,2,0,0,0,7.72.76,1.19,1.19,0,0,0,7.29.18C6.71-.21,5.9.12,5.37.41a6.91,6.91,0,0,0-1.5,1.14,1.25,1.25,0,0,1-.66-.06,3.22,3.22,0,0,0-.86-.18A2,2,0,0,0,.76,2.2a3.4,3.4,0,0,0-.43,1A10,10,0,0,0,.07,4.61a11.89,11.89,0,0,0,0,2.92q.06.48.15,1c.06.34.15.68.19,1a3.76,3.76,0,0,1-.14,1.29c-.07.28-.32.74,0,.92.14.08.3,0,.42-.08a4.32,4.32,0,0,0,1-.91,5.49,5.49,0,0,0,.49-.67,6.91,6.91,0,0,0-.11.9,3,3,0,0,0,.11,1.15s0,0,0,0a5.21,5.21,0,0,0-.59,1.12A5,5,0,0,0,1.38,16a4.49,4.49,0,0,0,1.2,2.17A3.13,3.13,0,0,0,3.9,19a2.88,2.88,0,0,0,1.62,0h0c.17.09.32.2.49.3a10.84,10.84,0,0,0,.09,1.27,8.92,8.92,0,0,1,0,1h0a26.06,26.06,0,0,1-.64,2.78c-.26.91-.51,1.82-.68,2.76a8.86,8.86,0,0,0-.12,2.72,5,5,0,0,0,.37,1.33c.25.8.38,1.62.55,2.44.2,1,.37,2,.54,3s.29,2,.47,2.93.51,1.92.78,2.87A15.59,15.59,0,0,1,8,45.08a2,2,0,0,1-.11,1,1.55,1.55,0,0,1-.71.72,1.81,1.81,0,0,0-.72.14A1.56,1.56,0,0,0,4.7,48.23a1.21,1.21,0,0,0,.6,1,1.39,1.39,0,0,0,1.37.09,1.4,1.4,0,0,0,.76,0l0,0a2,2,0,0,0,.82.21A3,3,0,0,0,10,49.07a.05.05,0,0,0,.08,0,1.87,1.87,0,0,0,.3-1.25.49.49,0,0,1,.18-.44c.14-.09.32-.12.46-.22.31-.25.16-.65,0-.94a6.14,6.14,0,0,1-.32-.69,2.92,2.92,0,0,1-.15-.65c0-.42.1-.85.16-1.28.1-.77.22-1.54.3-2.31a22.7,22.7,0,0,0,.1-2.33A17.64,17.64,0,0,0,11,37a1.05,1.05,0,0,1,.24-.23,1.73,1.73,0,0,0,.28-.19,7.69,7.69,0,0,0,.76.38h0a15.64,15.64,0,0,0,2.34.47h.67a14.43,14.43,0,0,0,1.61-.19s0,0,0,0a14,14,0,0,1-3,.08,6.19,6.19,0,0,1-2.43-.85A10.08,10.08,0,0,1,8.1,33a8.71,8.71,0,0,1-1.23-3.09A9,9,0,0,1,7,26.4H7a8.26,8.26,0,0,0,.29,5.22,11,11,0,0,0,2.78,3.92,8.48,8.48,0,0,0,1.38,1l-.3.22a.67.67,0,0,0-.13.15c0-.11,0-.21,0-.31s0,0,0,0A20.34,20.34,0,0,1,11,39c0,.78,0,1.55-.1,2.33s-.21,1.54-.31,2.31c0,.37-.09.74-.13,1.11a4.75,4.75,0,0,0,0,1.19,0,0,0,0,0,.05,0c0-.22,0-.44,0-.66a3.14,3.14,0,0,0,.27.76c.18.37.54.91,0,1.15-.26.11-.48.2-.53.5s0,.41,0,.61a1.33,1.33,0,0,1-.16.58c-.06.11-.2.16-.31.22a3,3,0,0,1-.44.21,2.69,2.69,0,0,1-.84.18,1.41,1.41,0,0,1-1.44-.68,1.23,1.23,0,0,1,.56-1.37,1.68,1.68,0,0,1,.77-.31,8,8,0,0,1,1,0,0,0,0,0,0,0,0,2.3,2.3,0,0,0-1.84.31,1.34,1.34,0,0,0-.58,1.42,1,1,0,0,0,.39.51,1.34,1.34,0,0,1-1.18-.38,1.23,1.23,0,0,1-.43-1,1.19,1.19,0,0,1,.81-.9,1.74,1.74,0,0,1,.64-.13,1.31,1.31,0,0,1,.28,0l.15,0,.11,0c-.06,0-.3-.14-.36-.1a1.52,1.52,0,0,0,.53-.48,1.56,1.56,0,0,0,.24-.81,3.78,3.78,0,0,0-.09-1c-.08-.43-.17-.85-.28-1.27-.24-1-.55-1.91-.81-2.87A25.72,25.72,0,0,1,6.4,37.5c-.17-1.14-.38-2.29-.6-3.43-.11-.55-.22-1.09-.34-1.64,0-.26-.11-.53-.18-.79a7.24,7.24,0,0,0,.41.71c.36.58.76,1.14,1.15,1.69,0,0,0,0,0,0-.5-.81-1.06-1.57-1.5-2.41a5.7,5.7,0,0,1-.63-2.75,24.64,24.64,0,0,1,1.14-5.56c.09-.38.17-.76.23-1.15,0,.39-.07.78-.09,1.17a8.71,8.71,0,0,0,0,1.35s0,0,0,0c0-.45.08-.9.11-1.35s.08-.92.11-1.38a14.46,14.46,0,0,0-.15-2.63,1.26,1.26,0,0,0,.72.11,6.43,6.43,0,0,0,.76-.17,2.51,2.51,0,0,1,.86-.07,6.64,6.64,0,0,1,1.51.48,1.86,1.86,0,0,0,1.46.08,3,3,0,0,0,.68.59,2.31,2.31,0,0,0,1.2.33,3.46,3.46,0,0,0,3.25-2.31c.1-.14.19-.3.28-.44a3.78,3.78,0,0,0,.33-.63c.19-.45.35-.92.5-1.38s.31-.92.45-1.38a2.52,2.52,0,0,0,.13-1.33,4.2,4.2,0,0,1,.89-.79l.22-.16a1.06,1.06,0,0,1,.19.9,8.28,8.28,0,0,1-.21,1.21,19.5,19.5,0,0,1-.86,2.47,37.52,37.52,0,0,1-2.2,4.88s0,0,0,0a35.59,35.59,0,0,0,2.33-5c.26-.65.52-1.29.72-2a1.87,1.87,0,0,1,.67.55,4.28,4.28,0,0,1,.51.77A6.36,6.36,0,0,1,21,17.88a22.66,22.66,0,0,1,0,4.2,0,0,0,0,0,0,0c0-.75.11-1.5.14-2.26a11.1,11.1,0,0,0-.08-1.91h0a5.62,5.62,0,0,1-.09-.57,5.07,5.07,0,0,0-.46-1.46,3.8,3.8,0,0,0-.52-.74,1.64,1.64,0,0,0-.66-.5,5.36,5.36,0,0,0,.14-.54A7.15,7.15,0,0,0,19.63,13a1,1,0,0,0-.23-.8A4.21,4.21,0,0,0,20.62,10.63Zm-15,37.28A1.36,1.36,0,0,0,6.11,49a1.52,1.52,0,0,0,.4.28,1.48,1.48,0,0,1-.55.09,1.32,1.32,0,0,1-.61-.22,1.1,1.1,0,0,1-.54-1,1.2,1.2,0,0,1,.66-.91A2.47,2.47,0,0,1,6.31,47,1.22,1.22,0,0,0,5.61,47.91ZM9.82,19.5a6.27,6.27,0,0,0-1.4-.42,5,5,0,0,0-1.53.22A1.23,1.23,0,0,1,6,19.17a2.33,2.33,0,0,0-.65-.28s0,0,0,0h0l-.23,0a3.81,3.81,0,0,0,1-1l0,0c.33-.08.64-.19,1-.24a4.13,4.13,0,0,1,1.11,0A4.23,4.23,0,0,1,9.42,18a2.91,2.91,0,0,0,.84.34c.37.41.67.9,1,1.33l0,0A2,2,0,0,1,9.82,19.5Zm-1.3-2.1a3.42,3.42,0,0,1,1,.32,2.11,2.11,0,0,1,.58.45,7.59,7.59,0,0,1-.82-.37,3.92,3.92,0,0,0-1.06-.26,3.75,3.75,0,0,0-1.95.27,1.63,1.63,0,0,1,.82-.43A3.48,3.48,0,0,1,8.52,17.4Zm-.87-.19a.54.54,0,0,0,.18-.41,1.4,1.4,0,0,0,.16.26.86.86,0,0,0,.2.18H8.11A3.44,3.44,0,0,0,7.65,17.21Zm8.58,1.33a3.47,3.47,0,0,1-2.55,2A2.35,2.35,0,0,1,11.79,20c-.11-.09-.21-.2-.31-.3a.05.05,0,0,0-.06-.07c-.38-.44-.69-1-1.07-1.39t0,0a2.61,2.61,0,0,0-.87-.66,2.35,2.35,0,0,0-.4-.14l0,0-.13,0-.35-.07a.84.84,0,0,1-.5-.32,3.32,3.32,0,0,1-.29-2.53,1,1,0,0,0,0-.17.8.8,0,0,0,.9.37,5.36,5.36,0,0,0,1-.26,2,2,0,0,0,1-.6,1.11,1.11,0,0,0,.11-1.07,2.44,2.44,0,0,0-.35-.55,2.77,2.77,0,0,0-1.85-.86c-1.06-.12-2.57,0-3,1.11A1.27,1.27,0,0,0,6,13.75a2.35,2.35,0,0,0,1.08.71.54.54,0,0,0,.31,0s.25-.11.25-.16a5.67,5.67,0,0,0-.07,1,5.14,5.14,0,0,0,.07.88,2.33,2.33,0,0,1,.1.78.4.4,0,0,1-.18.27,2.08,2.08,0,0,0-1,.26c-.66.39-.92,1.27-1.65,1.54h0a2.74,2.74,0,0,1-.64,0,2.46,2.46,0,0,1-1.07-.44,4.68,4.68,0,0,1-1.58-2.12,4.36,4.36,0,0,1,.08-2.85,5.56,5.56,0,0,1,1.37-2.22A9.41,9.41,0,0,1,5.36,9.86s0,0,0,0L5,10l.46-.3A9.67,9.67,0,0,1,6.6,9a4.22,4.22,0,0,1,2.59-.41,5.13,5.13,0,0,1,2.29,1.06,9.13,9.13,0,0,1,1.79,2c.08.12.16.24.25.35s.06,0,0,0a8.52,8.52,0,0,0-1.1-1.59,8.78,8.78,0,0,1,3.44,3.12A6.24,6.24,0,0,1,16.58,16,5.37,5.37,0,0,1,16.23,18.54ZM6.14,13.73a.49.49,0,0,0,.28-.06.88.88,0,0,0,.5-.57c0-.36-.64-.14-.74,0a0,0,0,0,0,0,0c.06,0,.58-.28.59-.11s-.19.34-.29.43a.43.43,0,0,1-.51.13.75.75,0,0,1-.12-.14,1.1,1.1,0,0,1-.23-.82,1.45,1.45,0,0,1,.41-.72,1.81,1.81,0,0,1,.42-.28,4.09,4.09,0,0,1,1.83-.27,3.08,3.08,0,0,1,1.9.63,1.83,1.83,0,0,1,.62.93,1,1,0,0,1-.22.8.63.63,0,0,1-1,.09.68.68,0,0,1-.2-.52c.05-.24.42.07.49.13s.07,0,0,0-.32-.33-.52-.26-.15.31-.1.45a.91.91,0,0,0,.49.53l0,0s-.21.09-.26.1a3.57,3.57,0,0,1-1,.29,1,1,0,0,1-.44-.09c-.08,0-.32-.2-.31-.31,0-.39.09-.77.14-1.16,0,0,0,0,0,0-.1.4-.2.8-.27,1.21-.3.29-.67.15-1-.06C6.73,14.16,6.29,13.85,6.14,13.73Zm12,.13a5,5,0,0,1-.17.69c-.14.45-.29.89-.44,1.33A14.87,14.87,0,0,1,17,17.29a3.15,3.15,0,0,1-.31.57l-.06.1a7.43,7.43,0,0,0,.14-1.68,6.46,6.46,0,0,0-.59-2.36A5.57,5.57,0,0,0,14.81,12a11.63,11.63,0,0,0-2.44-1.65A6,6,0,0,0,9.89,8.68a4.36,4.36,0,0,0-2.4-.11A7.37,7.37,0,0,0,5.22,9.76l-.76.52a7.09,7.09,0,0,0-1.37.94,5.64,5.64,0,0,0-.72.83A3.92,3.92,0,0,1,2.27,11c0-.34.08-.68.08-1a4.66,4.66,0,0,0,.58-1.53,13.21,13.21,0,0,1,.51-2.65A6.53,6.53,0,0,1,5.09,3.68l.48-.51A2.73,2.73,0,0,0,7.06,2s0,0,0,0A3,3,0,0,1,5.71,3,17.64,17.64,0,0,0,7.08,1.28c-.58.68-1.15,1.36-1.77,2A12.86,12.86,0,0,0,3.66,5.11C2.72,6.55,3.14,8.4,2.27,9.87A5.78,5.78,0,0,1,1.39,11a2.29,2.29,0,0,1-.52.41c-.11.06-.36.25-.48.24s-.09-.37,0-.5a6.11,6.11,0,0,0,.22-.94A4.25,4.25,0,0,0,.44,8.8a14.08,14.08,0,0,1-.33-3A9.24,9.24,0,0,1,.53,2.92,2.08,2.08,0,0,1,1.94,1.47a1.51,1.51,0,0,1,.67,0c.21,0,.41.11.61.16a1.51,1.51,0,0,0,.56,0l-.1.11C3.24,2.25,2.74,2.94,2,3a.82.82,0,0,1-.27,0s0,0,0,0c.63.2,1.2-.29,1.6-.71.22-.24.42-.48.65-.7A8,8,0,0,1,4.9.83,2.7,2.7,0,0,1,7,.17c.66.2.71,1,.86,1.59a0,0,0,0,0,.08,0A5.19,5.19,0,0,0,7.74.81,2.25,2.25,0,0,1,9.39,1a4,4,0,0,1,.75.54,4.31,4.31,0,0,0,.78.63s0,0,0,0-.29-.24-.42-.37l-.14-.12a4.74,4.74,0,0,0,.51.24A3.43,3.43,0,0,0,12,2.1a2.64,2.64,0,0,1-.64.19s0,0,0,0A5.77,5.77,0,0,0,13,1.84a2.74,2.74,0,0,1,1.65-.06,4.13,4.13,0,0,1,1.47.8,7.47,7.47,0,0,1,1.07,1.31l0,0,.09.5a12.09,12.09,0,0,1,.24,3,19.41,19.41,0,0,1-.56,2.81,12.56,12.56,0,0,0-.28,2.12,5,5,0,0,0,.1,1.39,1.21,1.21,0,0,0,.52.81c.37.17.53-.42.63-.67a2.94,2.94,0,0,1,.26-.6A5.85,5.85,0,0,1,18.13,13.86Zm1.22-1.78c-.5.41-1.19.75-1.42,1.39-.07.2-.14.4-.22.59s-.11.37-.3.38-.4-.33-.47-.5a2.7,2.7,0,0,1-.17-.89,9.12,9.12,0,0,1,.09-1.81c.13-.93.41-1.84.59-2.76a8.92,8.92,0,0,0,.18-1.35,9.12,9.12,0,0,0-.08-1.48c0-.35-.09-.69-.14-1a7,7,0,0,0-.22-1.05,6.14,6.14,0,0,0-.91-1.49s-.05,0,0,0c.2.35.44.67.63,1a2.45,2.45,0,0,1,.22.54,4.56,4.56,0,0,0-.94-1.16A4,4,0,0,0,15.49,2a3,3,0,0,1,1.32-.82,1,1,0,0,1,.82.15,2.09,2.09,0,0,1,.58.71c.13.24.25.49.4.72s.41.58.61.87a15.11,15.11,0,0,0,1.25,1.64s0,0,0,0c-.22-.3-.44-.59-.65-.89l-.64-.93c-.17-.24-.35-.49-.51-.74A3.08,3.08,0,0,0,20,3.22a2.69,2.69,0,0,1,.95.29,1.76,1.76,0,0,1,.59.65A4.94,4.94,0,0,1,22,6c0,.32.08.64.08,1a2.39,2.39,0,0,1-.3,1.1l-.15.26a7.28,7.28,0,0,0-.89,1.84,6.1,6.1,0,0,1-.53,1.09A4.47,4.47,0,0,1,19.35,12.08Z"/><path class="cls-61" d="M7,3.11A2.36,2.36,0,0,0,6,4,5.44,5.44,0,0,1,4.44,5.05s0,0,0,0a6.27,6.27,0,0,0,1.06-.55,7.31,7.31,0,0,0,1-.94.92.92,0,0,1,1.09-.24c.42.3.44.59.64,1.18a6,6,0,0,1,.2,1C8.44,4.22,7.91,2.79,7,3.11Z"/></g><path class="cls-63" d="M6,9.26a1.42,1.42,0,0,0-.54-.62,1.75,1.75,0,0,0-1.1-.32s0,.07,0,.07a2.11,2.11,0,0,1,.93.38,1.84,1.84,0,0,1,.57.61Z"/><path class="cls-63" d="M14.72,10.15a2.15,2.15,0,0,0-1.84.54l.18.11a3.49,3.49,0,0,1,.74-.4,3,3,0,0,1,1.14-.17S15,10.17,14.72,10.15Z"/><path class="cls-63" d="M6.9,4.4A4.25,4.25,0,0,1,4.6,5.78s0,0,0,0A2.66,2.66,0,0,0,6.76,4.65,1.14,1.14,0,0,0,6.9,4.4Z"/><g class="cls-51"><path d="M6.08,14.85c-.06-.19-.29-.13-.25-.15C5.22,14.94,6.24,15.42,6.08,14.85Z"/><path d="M9.56,15.11c0-.09-.16-.21-.25-.16-.49.22.36.65.25.16Z"/><path d="M5.46,15.53c0-.17-.48.05-.4.26.14.36.44,0,.4-.26Z"/><path d="M6.29,15.59Z"/><path d="M6.45,15.76c-.08-.11-.1-.14-.06-.1a.19.19,0,0,0-.34.1.21.21,0,1,0,.4,0S6.46,15.82,6.45,15.76Z"/><path d="M4.54,14.83c-.1.07-.24.09-.27.23a.17.17,0,0,0,.22.19c.21-.09.27-.56,0-.42Z"/><path d="M8.7,15.47c0-.21-.2-.31-.3-.09s.35.41.3.09Z"/><path d="M9.21,16l0-.08c-.08-.19-.26-.2-.31,0-.11.38.44.33.34.06C9.21,16,9.25,16.15,9.21,16Z"/><path d="M10.36,15.8c0-.11-.24-.37-.35-.18-.27.47.46.51.35.18C10.35,15.76,10.4,15.9,10.36,15.8Z"/><path d="M11.48,15.73a.49.49,0,0,0-.14-.17c-.13-.07-.22.09-.19.2.06.26.45.2.33,0Z"/><path d="M10.75,16.69c0-.09-.1-.24-.23-.15s.3.5.23.15C10.74,16.68,10.75,16.7,10.75,16.69Z"/><path d="M11.89,16.51c-.12-.12-.25.06-.15.18s.3-.05.15-.18S11.94,16.55,11.89,16.51Z"/><path d="M5.22,16.5c-.13-.07-.25.14-.21.24.09.25.42-.12.21-.24Z"/><path d="M6,16.61c0-.14-.28-.19-.24,0s.29.18.24,0S6,16.68,6,16.61Z"/><path d="M4,15.79c-.07,0-.1,0-.16,0s-.18.33,0,.27.26-.23.13-.3Z"/><path d="M10.77,15c0-.05-.18-.09-.2,0,0,.29.35.15.2,0Z"/><path d="M9.74,16.54Z"/><path d="M9.73,16.53c0-.05-.22-.13-.22.1s.41.09.22-.1Z"/></g><path class="cls-64" d="M6,12.39a.82.82,0,0,1,.25-.16,3.14,3.14,0,0,1,.81-.33,1,1,0,0,1,.61,0c.25.1.43.26.73.18a1.82,1.82,0,0,1,1.26,0,2.43,2.43,0,0,1,.73.54h0a.34.34,0,0,0-.06-.12v0A2.39,2.39,0,0,0,8.1,11.44a3.82,3.82,0,0,0-1.25.26,1.73,1.73,0,0,0-.81.55.44.44,0,0,0-.12.19Z"/><path class="cls-65" d="M6.83,11.86a2.69,2.69,0,0,1,1.56-.19A4.59,4.59,0,0,1,9.81,12a2.14,2.14,0,0,1,.3.17,2.66,2.66,0,0,0-2-.73,3.82,3.82,0,0,0-1.25.26,1.7,1.7,0,0,0-.75.48A3.94,3.94,0,0,1,6.83,11.86Z"/><path class="cls-64" d="M7.44,13a3,3,0,0,0-.53-.41.71.71,0,0,0-.57,0s0,0,0,0a.75.75,0,0,1,.62.11l.47.3S7.45,13,7.44,13Z"/><path class="cls-64" d="M10.08,13a.7.7,0,0,1-.35-.06l-.25-.08a.72.72,0,0,0-.55.08,2,2,0,0,1-.81.33s0,0,0,0a1.21,1.21,0,0,0,.61-.16,1,1,0,0,1,.82-.18h0a1,1,0,0,0,.53.07S10.09,13,10.08,13Z"/><path class="cls-64" d="M6.64,13.24a.93.93,0,0,1-.37.19A.29.29,0,0,1,6,13.3a1.13,1.13,0,0,1-.26-.54h0a.86.86,0,0,0,.25.72c.24.19.52,0,.67-.22C6.67,13.24,6.65,13.23,6.64,13.24Z"/><path class="cls-64" d="M10.66,13.45a1.6,1.6,0,0,1-.49.32c-.28.08-.47-.11-.62-.31,0,0-.05,0,0,0,.15.24.24.44.55.46s.49-.26.61-.47C10.68,13.45,10.67,13.44,10.66,13.45Z"/><path class="cls-32" d="M12.16,11.4a4.24,4.24,0,0,0-1-1.7,3.49,3.49,0,0,0-1.63-.84,4,4,0,0,0-1.76,0,3,3,0,0,0-.81.3,7.68,7.68,0,0,0-1.26.7,6.93,6.93,0,0,0,1.65-.05,5.56,5.56,0,0,1,1.82,0,4.72,4.72,0,0,1,1.57.59,3.9,3.9,0,0,1,.63.51C11.63,11.15,12.18,11.47,12.16,11.4Z"/><path class="cls-32" d="M11.38,11.58a3.51,3.51,0,0,0-2.6-1.49,4.61,4.61,0,0,0-2.91.75s0,.05,0,0a8.38,8.38,0,0,1,2.55-.25,5.41,5.41,0,0,1,1.48.3C10.48,11.12,11.42,11.64,11.38,11.58Z"/><path class="cls-32" d="M10.87,12.08a2,2,0,0,0-.82-.82,3.77,3.77,0,0,0-1.24-.36,4.22,4.22,0,0,0-2.59.42s0,0,0,0a8.75,8.75,0,0,1,2.39-.19,4,4,0,0,1,1.19.3C10.21,11.64,10.88,12.11,10.87,12.08Z"/><path class="cls-66" d="M10.73,9.64C10,8.58,8.27,8.72,7.26,9.25c0,0,0,0,0,0a3.63,3.63,0,0,1,3.43.38S10.75,9.66,10.73,9.64Z"/><path class="cls-66" d="M10.15,10.61a3.26,3.26,0,0,0-2.59-.35s0,0,0,0a4.67,4.67,0,0,1,2.56.35S10.17,10.62,10.15,10.61Z"/><path class="cls-66" d="M9.31,11.09A4.44,4.44,0,0,0,7.81,11a0,0,0,0,0,0,0c.5,0,1,.06,1.5.12C9.32,11.12,9.33,11.09,9.31,11.09Z"/><path class="cls-32" d="M14.13,14.22h0c.05.76.56,1.49.38,2.26A1.77,1.77,0,0,1,13,17.69a3.2,3.2,0,0,1-2-.63,2.53,2.53,0,0,0-1.73-.39s0,0,0,0c.83-.06,1.4.49,2.06.89a2.62,2.62,0,0,0,2.09.34,1.87,1.87,0,0,0,1.35-1.31C15,15.76,14.3,15,14.13,14.22Z"/><path class="cls-32" d="M6.34,16.12a5.19,5.19,0,0,0-.68.3,1.58,1.58,0,0,1-.86.07,1.79,1.79,0,0,1-1.15-1.08c-.44-1.07.46-2.16.5-3.23,0,0,0,0,0,0a9.71,9.71,0,0,1-.74,2,2,2,0,0,0,.15,1.65,1.91,1.91,0,0,0,1.27,1,2,2,0,0,0,1.58-.62S6.37,16.12,6.34,16.12Z"/><g class="cls-67"><path class="cls-68" d="M13.05,2.92c-1.27-.21-1.83,1.58-1.9,2.53,0,.49-.14,1-.14,1.47a.08.08,0,0,0,.15,0,4,4,0,0,1,.89-1.57A12.39,12.39,0,0,0,13.42,4a.69.69,0,0,0-.34-1.09Z"/></g><g class="cls-69"><path class="cls-70" d="M12.94,3.88c-.12-.2-.37,0-.52,0s-.15-.08-.19-.15-.39.1-.45.19a3.62,3.62,0,0,0-.48,1.17,4.07,4.07,0,0,0-.11.78c0,.12,0,.25,0,.38a4.07,4.07,0,0,1,.76-1.2c.32-.35.72-.63,1.06-1A.33.33,0,0,0,12.94,3.88Z"/></g><g class="cls-71"><path class="cls-72" d="M9.35,2.91c-.2-.48-.52-.92-1-1a.92.92,0,0,0-.82.56c-.12.6.35,1.1.65,1.57a5.46,5.46,0,0,1,.6,1.21,3,3,0,0,1,.17.6c0,.18,0,.41.08.57,0,0,.05,0,.07-.07A4.36,4.36,0,0,0,9.35,2.91Z"/></g><g class="cls-73"><path class="cls-74" d="M8.92,3.09s0,.06-.07.07S8.63,3.07,8.57,3s-.23-.26-.31-.15A.31.31,0,0,1,8.17,3a.12.12,0,0,1-.11,0s-.19-.05-.14.07a.32.32,0,0,0,.13.15s0,.06,0,0a2.79,2.79,0,0,1,.66,1.08,6,6,0,0,1,.45,1.55,3.87,3.87,0,0,0,0-2.6C9.14,3.23,9,3,8.92,3.09Z"/></g><g class="cls-75"><path class="cls-76" d="M21.76,5.35c-.06-.25-.14-.5-.21-.73A2.24,2.24,0,0,0,20.5,3.39a1.66,1.66,0,0,1,.31.36,1.68,1.68,0,0,1,.37,1.32c-.1.41-.49.86-.93.57a2.7,2.7,0,0,1-.66-.77c-.21-.33-.39-.69-.57-1a14.51,14.51,0,0,0-.87-1.77,1.75,1.75,0,0,0-1-.85c-.52-.09-1,.41-1.38.68,0,0,0,.08,0,.06a7.31,7.31,0,0,1,.93-.46.9.9,0,0,1,.83.33A3.57,3.57,0,0,1,18.25,3l.27.63a8.88,8.88,0,0,0,.4,1.4,4.21,4.21,0,0,0,.88,1.3,3.29,3.29,0,0,1,.78,1.17,1.79,1.79,0,0,1,0,.89,5.58,5.58,0,0,1-.35.79,2.19,2.19,0,0,0-.2.44,9.29,9.29,0,0,1-.45,1.35c-.48.87-1.36,1.06-1.76,2,0,.08-.21,1.18,0,.41.13-.54.77-.79,1.2-1.15A6.1,6.1,0,0,0,20.15,11a8.4,8.4,0,0,0,.61-1.7,8,8,0,0,1,.87-1.42A3.35,3.35,0,0,0,21.76,5.35Z"/></g><path class="cls-77" d="M6.82.2A2.72,2.72,0,0,0,5.24.81a8.39,8.39,0,0,0-.81.5,8.73,8.73,0,0,0-.74.75A5.51,5.51,0,0,1,2,3.36s0,0,0,0c1.1-.18,1.78-1.12,2.51-1.87A4.51,4.51,0,0,1,5.16.87,3.87,3.87,0,0,1,6.09.46a1.06,1.06,0,0,1,1.54.77S7.54.75,7.54.71C7.5.33,7.18.22,6.82.2Z"/><path class="cls-77" d="M18.6,3a4,4,0,0,0-.55-1.06,1.38,1.38,0,0,0-.9-.59,2.15,2.15,0,0,0-1.09.43,0,0,0,0,0,0,0,1.66,1.66,0,0,1,1-.22,2.05,2.05,0,0,1,.93.82c.43.58.6,1.3,1,1.91,0,0,0,0,0,0C18.92,3.84,18.77,3.39,18.6,3Z"/><path class="cls-78" d="M21.47,4.5a1.79,1.79,0,0,0-.67-.84,3.1,3.1,0,0,0-1.05-.3s0,0,0,0a2.36,2.36,0,0,1,.87.39,2.23,2.23,0,0,1,.63.86A7.09,7.09,0,0,1,21.78,7s.07,0,.06,0A6.81,6.81,0,0,0,21.47,4.5Z"/><path class="cls-78" d="M2,1.59a1.83,1.83,0,0,0-1.12.77A5.67,5.67,0,0,0,.29,4,8.39,8.39,0,0,0,.13,5.87,11.94,11.94,0,0,0,.39,7.76h0A10.85,10.85,0,0,1,.5,4.3,9.35,9.35,0,0,1,.92,2.84a2.6,2.6,0,0,1,.4-.73A3.19,3.19,0,0,1,2,1.63,0,0,0,0,0,2,1.59Z"/><path class="cls-79" d="M7.51,3.64a.34.34,0,0,0-.36-.08c-.35.06-.72.48-.94.67A4.54,4.54,0,0,1,4.53,5.31s0,.05,0,.05A2.41,2.41,0,0,0,6,4.81a6.12,6.12,0,0,1,1.32-1,.38.38,0,0,1,.15,0c.15,0,.27.22.33.34s0,0,0,0A1.2,1.2,0,0,0,7.51,3.64Z"/><path class="cls-79" d="M15.8,4.55a1.9,1.9,0,0,0-1.68-1.19,1.42,1.42,0,0,0-.87.35,5.76,5.76,0,0,0-.85.86s0,0,0,0a3.23,3.23,0,0,1,.7-.58A3.25,3.25,0,0,1,14,3.7c.76-.15,1.25.47,1.77.89A0,0,0,0,0,15.8,4.55Z"/><path class="cls-80" d="M5.84,4.69a7.57,7.57,0,0,0,.7-.57A1.76,1.76,0,0,1,7,3.75a.57.57,0,0,1,.74.32,1.18,1.18,0,0,0-.26-.43.34.34,0,0,0-.36-.08c-.35.06-.72.48-.94.67a7,7,0,0,1-1,.77A3,3,0,0,0,5.84,4.69Z"/><path class="cls-80" d="M12.75,4.27A1.68,1.68,0,0,1,13.12,4h0a1.59,1.59,0,0,1,1.59-.38,2.81,2.81,0,0,1,.93.66,1.78,1.78,0,0,0-1.53-.92,1.42,1.42,0,0,0-.87.35,4.56,4.56,0,0,0-.7.69Z"/><path class="cls-81" d="M16.29,3.52a5.58,5.58,0,0,1,.58,1.08A3.55,3.55,0,0,0,15.1,2.08a3.37,3.37,0,0,0-3.5.65A3.64,3.64,0,0,1,16.29,3.52Z"/><path class="cls-81" d="M9.68,1.36C9.34,1.09,8.77.74,8.34.94a.11.11,0,0,0,0,.2,1.75,1.75,0,0,0,.51.2,2.62,2.62,0,0,1,.59.33,2.94,2.94,0,0,1,.91,1,0,0,0,0,0,.09,0A2.12,2.12,0,0,0,9.68,1.36Z"/><path class="cls-82" d="M15.26,10.42c-.49-.19-1.54,0-1.36.38s1.4.43,1.57,0C15.55,10.63,15.45,10.5,15.26,10.42Z"/><path class="cls-82" d="M3.94,8.44a.43.43,0,0,0-.38.2c-.33.63,1.06,1,1.42.85C5.82,9.22,4.63,8.42,3.94,8.44Z"/><path class="cls-57" d="M15.93,10.56a2.27,2.27,0,0,0-2.23.15s0,0,0,0a4.14,4.14,0,0,1,2.18-.1S16,10.58,15.93,10.56Z"/><path class="cls-57" d="M5.44,9.31c-.24-.7-1.15-.87-1.78-.92,0,0,0,0,0,0a6.55,6.55,0,0,1,.88.31,4.46,4.46,0,0,1,.81.62S5.46,9.37,5.44,9.31Z"/><path class="cls-23" d="M19.36,12.49a.06.06,0,0,0-.11,0c0,1.9-1,3.55-1.46,5.35,0,0,0,0,0,0,.33-.92.81-1.78,1.17-2.69A3.77,3.77,0,0,0,19.36,12.49Z"/><path class="cls-23" d="M20.73,17a4.5,4.5,0,0,0-.36-.92,4.18,4.18,0,0,0-.58-.75h0a4.65,4.65,0,0,1,.7,1.83,10.18,10.18,0,0,1,.18,2.06c0,1.5-.2,3-.1,4.51,0,0,.08.07.09,0,.12-.85.16-1.72.21-2.58s.09-1.42.09-2.13A8.16,8.16,0,0,0,20.73,17Z"/><path class="cls-23" d="M22,24.88h0a9.82,9.82,0,0,1,.56,3.76c0,.63-.06,1.25-.11,1.87,0,.34,0,.68-.08,1s-.14.73-.19,1.09c0,0,0,.06.06,0A11.49,11.49,0,0,0,22,24.88Z"/><path class="cls-23" d="M24,39a29,29,0,0,0-.48-4.06,0,0,0,0,0,0,0c.17,1.34.28,2.71.36,4.06s0,2.7.09,4a0,0,0,1,0,0,0c0-.62,0-1.24.06-1.85S24,39.71,24,39Z"/><path class="cls-23" d="M22.16,46.62a1.17,1.17,0,0,0-1.23.63s0,0,0,0a2.71,2.71,0,0,1,1.2-.59A0,0,0,0,0,22.16,46.62Z"/><path class="cls-23" d="M22.94,47.09c-.56-.2-1,.37-1.2.83,0,0,0,0,0,0a1.36,1.36,0,0,1,1.15-.77C23,47.17,23,47.11,22.94,47.09Z"/><path class="cls-23" d="M25.09,47.15c-.28-.49-.93-.5-1.42-.5,0,0,0,0,0,0a4.09,4.09,0,0,1,.69.17c.25.09.44.25.68.36A0,0,0,0,0,25.09,47.15Z"/><path class="cls-66" d="M10,12.3C9,11.08,6.72,11.58,6.93,12c.11.24.48.36.72.43a4.72,4.72,0,0,0,.84.12C8.8,12.58,10.38,12.67,10,12.3Z"/><path class="cls-83" d="M9.36,12c-.63-.69-1.9-.4-1.78-.15A.72.72,0,0,0,8,12.1a2.65,2.65,0,0,0,.48.07C8.65,12.18,9.55,12.23,9.36,12Z"/><path class="cls-84" d="M6.63,11.84c-.31.19-.62.48-.28.44s.72-.32.73-.46S6.82,11.71,6.63,11.84Z"/><path class="cls-23" d="M9.44,33.27A9.27,9.27,0,0,1,7.94,30c-.24-1-.32-2.06-.47-3.1,0-.15-.22,0-.22.13,0,.54-.09,1.05,0,1.6s.19,1.22.32,1.82a5.63,5.63,0,0,0,1.81,2.89S9.47,33.31,9.44,33.27Z"/><path class="cls-23" d="M5.05,28.1c0-.37.06-.74.11-1.12a11.2,11.2,0,0,0,.23-1.31s-.06,0-.06,0c0,.46-.22.89-.29,1.33s-.11.81-.14,1.23a5.27,5.27,0,0,0,.5,2.53s.06,0,0,0A8.17,8.17,0,0,1,5.05,28.1Z"/><path class="cls-23" d="M6.9,38.5a12.9,12.9,0,0,1-.34-1.73c-.1-.65-.3-1.27-.42-1.91,0,0-.08,0-.08,0,.09.61.25,1.21.35,1.82a12.55,12.55,0,0,0,.32,1.73c.35,1.26.55,2.55.84,3.81,0,0,.09,0,.08,0A28,28,0,0,0,6.9,38.5Z"/></g></g></g></svg>