<svg xmlns="http://www.w3.org/2000/svg" viewBox="0 0 850 832.99"><defs><style>.cls-1{fill:#032539;}</style></defs><title>Zasób 1</title><g id="Warstwa_2" data-name="Warstwa 2"><g id="Graphic_Elements" data-name="Graphic Elements"><path class="cls-1" d="M558.09,0c51.74,0,93.68,78.71,93.68,145.39s-41.94,120.75-93.68,120.75-93.68-54.06-93.68-120.75S506.35,0,558.09,0Z"/><path class="cls-1" d="M291.91,0c51.74,0,93.68,78.71,93.68,145.39s-41.94,120.75-93.68,120.75-93.68-54.06-93.68-120.75S240.17,0,291.91,0Z"/><path class="cls-1" d="M11.35,351.7C-10.62,296.69-1,217.56,42.86,200s105.35,33.2,127.33,88.21,4.23,113.81-39.64,131.33S33.32,406.7,11.35,351.7Z"/><path class="cls-1" d="M838.65,351.7c-22,55-75.34,85.4-119.2,67.88s-61.61-76.32-39.64-131.33S763.28,182.52,807.14,200,860.62,296.69,838.65,351.7Z"/><path class="cls-1" d="M760.16,655.56c-10-45.06-34-85.68-60.49-123.34C637.59,444,538.18,354.92,425,354.92c-112.71,0-212.58,89.06-274.67,177.3-26.49,37.66-50.44,78.28-60.49,123.34S85.29,751,113.2,787.6,194,842.47,235.32,822.66c24.58-11.78,44.48-35.54,71.59-37.82,24.9-2.09,46.9,14.67,67.66,28.69,15,10.13,33.1,19.35,50.43,19.46,17.33-.11,35.42-9.33,50.43-19.46,20.76-14,42.76-30.78,67.66-28.69,27.11,2.28,47,26,71.59,37.82C656,842.47,708.89,824.2,736.8,787.6S770.21,700.61,760.16,655.56ZM523.59,601.29c-12.77,23.33-32.92,43.89-49.94,59.88a325.75,325.75,0,0,1-28.77,24.08l-.06,0a33.49,33.49,0,0,1-39.64,0l-.06,0a325.75,325.75,0,0,1-28.77-24.08c-17-16-37.17-36.55-49.94-59.88-10.55-19.27-16.06-40.44-10.6-62.5,5.24-21.14,21.92-39.71,42.38-42.3,23.66-3,51.21,13.64,66.81,32.77,15.6-19.13,43.15-35.77,66.81-32.77,20.46,2.59,37.14,21.16,42.38,42.3C539.65,560.85,534.14,582,523.59,601.29Z"/></g></g></svg>